<svg width="148" height="39" fill="none" xmlns="http://www.w3.org/2000/svg"><path d="M23.373 17.835c-.039-4.237 3.558-6.298 3.723-6.394C25.058 8.545 21.9 8.15 20.79 8.118c-2.652-.272-5.224 1.547-6.575 1.547-1.378 0-3.458-1.52-5.7-1.476C5.63 8.233 2.93 9.861 1.45 12.39-1.604 17.547.674 25.127 3.6 29.294c1.464 2.041 3.175 4.32 5.415 4.24 2.19-.087 3.01-1.361 5.653-1.361 2.62 0 3.388 1.362 5.672 1.31 2.351-.036 3.832-2.05 5.245-4.11 1.692-2.34 2.371-4.644 2.398-4.763-.055-.018-4.566-1.697-4.61-6.775zM19.059 5.376c1.178-1.437 1.984-3.391 1.76-5.375-1.705.074-3.838 1.15-5.066 2.555-1.087 1.239-2.058 3.268-1.807 5.177 1.916.14 3.883-.942 5.113-2.357zM55.08 33.243H52.02l-1.678-5.139h-5.83l-1.597 5.139h-2.981l5.776-17.494h3.567l5.804 17.494zm-5.244-7.295l-1.517-4.567c-.16-.467-.461-1.566-.905-3.296h-.054c-.176.744-.46 1.843-.852 3.296l-1.49 4.567h4.818zM69.933 26.78c0 2.145-.594 3.841-1.784 5.086-1.065 1.108-2.387 1.662-3.966 1.662-1.704 0-2.928-.597-3.674-1.79h-.054v6.644h-2.874V24.781c0-1.349-.037-2.733-.107-4.153h2.528l.16 2h.054c.959-1.507 2.414-2.259 4.366-2.259 1.526 0 2.8.588 3.82 1.764 1.022 1.178 1.531 2.727 1.531 4.647zm-2.928.103c0-1.228-.283-2.24-.852-3.037-.622-.83-1.456-1.246-2.503-1.246-.709 0-1.353.231-1.929.687a3.177 3.177 0 00-1.131 1.805c-.09.347-.134.631-.134.855v2.103c0 .918.289 1.692.866 2.324.577.632 1.327.948 2.249.948 1.082 0 1.925-.408 2.528-1.22.604-.814.906-1.886.906-3.22zM84.816 26.78c0 2.145-.594 3.841-1.785 5.086-1.064 1.108-2.386 1.662-3.965 1.662-1.704 0-2.928-.597-3.673-1.79h-.054v6.644h-2.874V24.781c0-1.349-.037-2.733-.107-4.153h2.528l.16 2h.055c.957-1.507 2.412-2.259 4.365-2.259 1.525 0 2.8.588 3.821 1.764 1.018 1.178 1.53 2.727 1.53 4.647zm-2.928.103c0-1.228-.285-2.24-.854-3.037-.621-.83-1.453-1.246-2.5-1.246-.711 0-1.354.231-1.931.687a3.175 3.175 0 00-1.13 1.805c-.088.347-.134.631-.134.855v2.103c0 .918.289 1.692.863 2.324.577.631 1.327.948 2.252.948 1.082 0 1.925-.408 2.528-1.22.604-.814.906-1.886.906-3.22zM101.454 28.337c0 1.488-.53 2.698-1.593 3.633-1.17 1.021-2.797 1.531-4.888 1.531-1.93 0-3.478-.362-4.65-1.09l.666-2.335c1.262.744 2.647 1.117 4.155 1.117 1.083 0 1.926-.24 2.531-.715.603-.476.903-1.115.903-1.912 0-.71-.248-1.307-.745-1.793-.495-.485-1.322-.935-2.476-1.352-3.141-1.142-4.71-2.816-4.71-5.016 0-1.439.55-2.618 1.651-3.535 1.098-.919 2.562-1.378 4.393-1.378 1.633 0 2.989.278 4.072.831l-.719 2.285c-1.011-.537-2.155-.805-3.434-.805-1.011 0-1.801.243-2.367.727-.48.433-.72.96-.72 1.584 0 .691.275 1.263.825 1.713.478.415 1.348.865 2.61 1.35 1.543.606 2.677 1.314 3.407 2.127.727.81 1.089 1.823 1.089 3.033zM110.956 22.731h-3.169v6.125c0 1.557.558 2.335 1.677 2.335.514 0 .94-.043 1.277-.13l.08 2.129c-.567.206-1.312.31-2.236.31-1.135 0-2.022-.338-2.662-1.012-.638-.676-.959-1.81-.959-3.401v-6.358h-1.888v-2.104h1.888v-2.31l2.823-.83v3.14h3.169v2.106zM125.251 26.83c0 1.94-.569 3.531-1.704 4.776-1.19 1.282-2.77 1.92-4.74 1.92-1.898 0-3.41-.613-4.537-1.84-1.127-1.229-1.691-2.779-1.691-4.646 0-1.955.58-3.556 1.744-4.801 1.16-1.246 2.727-1.87 4.697-1.87 1.898 0 3.426.614 4.578 1.844 1.103 1.192 1.653 2.731 1.653 4.618zm-2.982.091c0-1.163-.255-2.16-.771-2.993-.603-1.007-1.464-1.509-2.581-1.509-1.155 0-2.033.503-2.635 1.51-.517.833-.772 1.846-.772 3.045 0 1.163.255 2.16.772 2.992.621 1.007 1.489 1.509 2.61 1.509 1.097 0 1.959-.513 2.58-1.536.53-.847.797-1.856.797-3.018zM134.593 23.093a5.11 5.11 0 00-.906-.078c-1.011 0-1.793.372-2.343 1.118-.479.657-.719 1.488-.719 2.49v6.62h-2.873l.027-8.642c0-1.454-.036-2.778-.108-3.972h2.504l.105 2.414h.08c.303-.83.782-1.497 1.437-1.998a3.534 3.534 0 012.078-.676c.265 0 .505.018.718.051v2.673zM147.45 26.339c0 .502-.034.925-.105 1.27h-8.623c.033 1.247.45 2.2 1.251 2.857.726.588 1.666.882 2.82.882 1.277 0 2.442-.198 3.489-.596l.451 1.945c-1.224.52-2.67.78-4.338.78-2.006 0-3.58-.576-4.726-1.726-1.144-1.15-1.717-2.695-1.717-4.633 0-1.902.533-3.486 1.599-4.75 1.117-1.348 2.625-2.022 4.524-2.022 1.864 0 3.276.674 4.234 2.023.759 1.071 1.141 2.396 1.141 3.97zm-2.741-.727c.019-.831-.168-1.549-.558-2.155-.498-.78-1.262-1.168-2.291-1.168-.939 0-1.704.38-2.288 1.142-.478.606-.763 1.333-.85 2.18h5.987zM48.885 4.985c0 1.547-.476 2.712-1.426 3.494-.88.722-2.132 1.083-3.753 1.083-.803 0-1.49-.034-2.066-.102V1.006c.75-.118 1.56-.179 2.433-.179 1.544 0 2.708.327 3.492.982.88.74 1.32 1.798 1.32 3.176zm-1.49.038c0-1.003-.272-1.772-.817-2.308-.544-.535-1.34-.803-2.388-.803-.444 0-.823.029-1.137.089v6.427c.174.026.492.038.954.038 1.081 0 1.916-.293 2.504-.88.588-.586.884-1.44.884-2.563zM56.785 6.336c0 .953-.28 1.734-.837 2.347-.586.63-1.36.944-2.329.944-.933 0-1.676-.301-2.23-.906-.553-.603-.83-1.365-.83-2.282 0-.96.285-1.747.857-2.358.572-.612 1.34-.918 2.308-.918.933 0 1.683.301 2.25.904.54.587.81 1.344.81 2.27zm-1.466.045c0-.572-.127-1.062-.379-1.47-.296-.495-.718-.742-1.267-.742-.568 0-.999.247-1.296.741-.253.409-.379.907-.379 1.496 0 .572.127 1.062.38 1.471.305.494.731.741 1.282.741.539 0 .962-.25 1.267-.754.261-.417.392-.911.392-1.483zM67.375 3.289l-1.989 6.196h-1.294l-.824-2.69a19.711 19.711 0 01-.51-2.003h-.026a14.36 14.36 0 01-.511 2.002l-.875 2.691h-1.31l-1.87-6.196h1.453l.718 2.945c.174.697.317 1.361.432 1.99h.025c.106-.519.28-1.178.525-1.976l.902-2.958h1.151l.864 2.894c.21.706.38 1.386.51 2.04h.04c.095-.637.24-1.317.43-2.04l.772-2.894h1.387v-.001zM74.7 9.486h-1.413v-3.55c0-1.093-.426-1.64-1.281-1.64-.42 0-.758.15-1.02.451-.26.301-.393.656-.393 1.062v3.676H69.18V5.06c0-.544-.018-1.134-.051-1.773h1.242l.066.968h.039c.164-.3.41-.549.732-.747a2.434 2.434 0 011.28-.349c.594 0 1.087.187 1.48.561.488.46.732 1.144.732 2.054v3.712zM78.597 9.486h-1.411V.446h1.411v9.04zM86.918 6.336c0 .953-.28 1.734-.838 2.347-.585.63-1.361.944-2.328.944-.934 0-1.677-.301-2.23-.906-.553-.603-.83-1.365-.83-2.282 0-.96.285-1.747.857-2.358.571-.612 1.34-.918 2.307-.918.934 0 1.682.301 2.251.904.54.587.81 1.344.81 2.27zm-1.467.045c0-.572-.127-1.062-.38-1.47-.295-.495-.718-.742-1.265-.742-.57 0-1 .247-1.296.741-.253.409-.379.907-.379 1.496 0 .572.127 1.062.38 1.471.305.494.731.741 1.281.741.54 0 .962-.25 1.266-.754.263-.417.393-.911.393-1.483zM93.754 9.486h-1.268l-.106-.714h-.039c-.434.57-1.053.855-1.856.855-.6 0-1.085-.188-1.45-.562-.332-.339-.498-.76-.498-1.262 0-.757.323-1.334.974-1.733.65-.4 1.564-.596 2.741-.587v-.115c0-.817-.44-1.224-1.32-1.224-.627 0-1.18.154-1.657.458l-.287-.904c.59-.356 1.32-.535 2.18-.535 1.661 0 2.495.855 2.495 2.563v2.282c0 .62.03 1.113.091 1.478zm-1.467-2.13v-.955c-1.558-.027-2.337.39-2.337 1.249 0 .323.089.565.27.727.183.161.415.241.69.241.311 0 .6-.096.865-.286a1.172 1.172 0 00.512-.976zM101.781 9.486h-1.253l-.067-.995h-.039c-.4.757-1.082 1.136-2.04 1.136-.767 0-1.404-.293-1.91-.88-.505-.586-.758-1.347-.758-2.281 0-1.003.274-1.816.824-2.436.533-.579 1.185-.868 1.962-.868.853 0 1.45.28 1.79.841h.027V.446h1.415v7.37c0 .604.016 1.16.049 1.67zm-1.464-2.613V5.84c0-.179-.013-.324-.039-.434a1.561 1.561 0 00-.51-.835 1.41 1.41 0 00-.946-.338c-.527 0-.94.204-1.243.613-.3.409-.453.93-.453 1.568 0 .613.144 1.11.434 1.492.306.408.719.612 1.235.612.464 0 .835-.17 1.116-.51a1.67 1.67 0 00.406-1.135zM113.867 6.336c0 .953-.279 1.734-.837 2.347-.585.63-1.359.944-2.329.944-.931 0-1.674-.301-2.229-.906-.553-.603-.83-1.365-.83-2.282 0-.96.285-1.747.856-2.358.572-.612 1.341-.918 2.31-.918.932 0 1.683.301 2.249.904.539.587.81 1.344.81 2.27zm-1.464.045c0-.572-.127-1.062-.379-1.47-.298-.495-.718-.742-1.269-.742-.566 0-.997.247-1.295.741-.254.409-.379.907-.379 1.496 0 .572.127 1.062.379 1.471.306.494.732.741 1.282.741.539 0 .964-.25 1.269-.754.26-.417.392-.911.392-1.483zM121.463 9.486h-1.411v-3.55c0-1.093-.426-1.64-1.283-1.64-.419 0-.757.15-1.019.451a1.572 1.572 0 00-.392 1.062v3.676h-1.414V5.06c0-.544-.017-1.134-.05-1.773h1.24l.066.968h.039c.166-.3.411-.549.732-.747a2.441 2.441 0 011.282-.349c.592 0 1.086.187 1.478.561.49.46.732 1.144.732 2.054v3.712zM130.972 4.321h-1.556v3.01c0 .766.277 1.148.824 1.148.253 0 .464-.02.63-.064l.036 1.045c-.279.102-.646.154-1.097.154-.559 0-.993-.166-1.307-.497-.315-.332-.472-.889-.472-1.671V4.32h-.929V3.29h.929V2.154l1.385-.408v1.542h1.556v1.033h.001zM138.453 9.486h-1.414V5.963c0-1.11-.427-1.666-1.28-1.666-.655 0-1.103.322-1.348.966a1.684 1.684 0 00-.066.495v3.727h-1.412V.446h1.412v3.735h.027c.445-.68 1.082-1.019 1.909-1.019.585 0 1.069.187 1.453.561.479.467.719 1.161.719 2.079v3.684zM146.171 6.095c0 .247-.019.455-.052.625h-4.238c.019.612.221 1.079.614 1.402.358.29.821.434 1.387.434a4.79 4.79 0 001.714-.293l.221.957c-.603.255-1.312.382-2.133.382-.984 0-1.76-.282-2.32-.848-.564-.565-.843-1.323-.843-2.275 0-.935.26-1.713.785-2.333.547-.663 1.287-.994 2.221-.994.915 0 1.609.331 2.078.994.379.525.566 1.176.566 1.95zm-1.348-.356c.011-.409-.082-.761-.274-1.058-.245-.383-.618-.575-1.124-.575-.461 0-.837.187-1.124.562a2.054 2.054 0 00-.42 1.07h2.942z" fill="#3F3E56"/></svg>