<svg width="2560" height="704" fill="none" xmlns="http://www.w3.org/2000/svg"><g opacity=".5"><path d="M559.718 133.566C1207.93 83.853 1757.06 299.719 2750.03 0l-192.18 403.407-155.67 219.313-2450.266-15.947c-30.362-44.137-80.654-260.846-45.544-274.32 43.888-16.843-197.081-133.667 653.348-198.887z" fill="url(#paint0_linear_25_35913)" fill-opacity=".1"/><path d="M1726.81 265.852c673.7-20.632 832.1-66.898 977.84-103.716l-25.67 322.393L2523.3 704 73.045 688.042C42.682 643.873-643.761 235.699 345.48 192.618c699.94-30.482 817.92 90.488 1381.33 73.234z" fill="url(#paint1_linear_25_35913)" fill-opacity=".1"/><path d="M25.635 520.138c43.907-16.846-517.774-241.401 323.09-280.469 320.902-14.91 592.937 82.071 1052.115 137.907 503.37 61.21 1219.46-71.148 1467.16 54.66l-188.05 16.846L2524.2 668.44l-2451.344.983C42.479 625.277-9.491 533.615 25.635 520.138z" fill="url(#paint2_linear_25_35913)" fill-opacity=".2"/></g><defs><linearGradient id="paint0_linear_25_35913" x1="1225.41" y1="133.566" x2="1225.41" y2="622.72" gradientUnits="userSpaceOnUse"><stop stop-color="#FF42A8"/><stop offset="1" stop-color="#7759B7" stop-opacity="0"/></linearGradient><linearGradient id="paint1_linear_25_35913" x1="1346.54" y1="214.493" x2="1346.54" y2="704" gradientUnits="userSpaceOnUse"><stop stop-color="#FF42A8"/><stop offset="1" stop-color="#7759B7" stop-opacity="0"/></linearGradient><linearGradient id="paint2_linear_25_35913" x1="1739.19" y1="173.834" x2="1682.52" y2="589.304" gradientUnits="userSpaceOnUse"><stop stop-color="#FF42A8"/><stop offset="1" stop-color="#7759B7" stop-opacity="0"/></linearGradient></defs></svg>