<svg width="2560" height="1051" fill="none" xmlns="http://www.w3.org/2000/svg"><g opacity=".6"><path d="M2004.16 194.956C1447.11 175.969 1235.71 567.382-73.202 0v553.09L85.62 888.639 2585.36 864.24c30.98-67.53 82.28-399.094 46.46-419.71-44.77-25.769 247.32-219.749-627.66-249.574z" fill="url(#paint0_linear_25_35919)" fill-opacity=".1"/><path d="M850.378 432.013c-663.465-31.567-804.564-154.17-948.09-210.501l25.28 493.26L80.88 1050.56l2413.03-24.41c29.9-67.582 705.91-692.087-268.3-758.001-689.3-46.637-820.39 190.263-1375.232 163.864z" fill="url(#paint1_linear_25_35919)" fill-opacity=".1"/><path opacity=".6" d="M2613.26 717.743c-54.57-25.787 533.13-318.09-511.85-377.893-398.81-22.823-755.11 183.245-1325.758 268.714-249.749 37.407-551.364 20.982-843.214.001v335.776H2657.61c37.75-67.576-.7-205.969-44.35-226.598z" fill="url(#paint2_linear_25_35919)" fill-opacity=".3"/></g><defs><linearGradient id="paint0_linear_25_35919" x1="1286.14" y1="140.234" x2="1286.14" y2="888.638" gradientUnits="userSpaceOnUse"><stop stop-color="#FF78B9"/><stop offset="1" stop-color="#7759B7" stop-opacity="0"/></linearGradient><linearGradient id="paint1_linear_25_35919" x1="1252.44" y1="323.198" x2="1252.44" y2="1050.56" gradientUnits="userSpaceOnUse"><stop stop-color="#FFC0E6"/><stop offset="1" stop-color="#7759B7" stop-opacity="0"/></linearGradient><linearGradient id="paint2_linear_25_35919" x1="1282.43" y1="168.255" x2="1372.47" y2="944.411" gradientUnits="userSpaceOnUse"><stop stop-color="#FF9ACB"/><stop offset="1" stop-color="#7759B7" stop-opacity="0"/></linearGradient></defs></svg>