<svg width="149" height="35" fill="none" xmlns="http://www.w3.org/2000/svg"><path d="M48.135 5.14c0 1.046-.32 1.884-.953 2.509-.726.74-1.673 1.113-2.832 1.113-1.109 0-2.055-.379-2.831-1.126-.779-.758-1.167-1.688-1.167-2.801 0-1.114.389-2.044 1.167-2.796.776-.753 1.722-1.132 2.83-1.132.552 0 1.079.11 1.58.318.501.208.909.49 1.204.838l-.67.66c-.516-.593-1.217-.886-2.113-.886-.809 0-1.51.276-2.105.832-.589.557-.884 1.28-.884 2.166 0 .886.295 1.614.884 2.172.595.55 1.296.831 2.105.831.858 0 1.58-.282 2.15-.837.374-.369.588-.876.644-1.524H44.35V4.57h3.727c.045.196.058.386.058.569zM54.049 2.002h-3.502v2.38h3.157v.906h-3.157v2.38h3.502v.923h-4.493V1.08h4.493v.922zM58.224 8.59h-.991V2.003h-2.148V1.08h5.288v.922h-2.149v6.589zM64.203 8.59V1.08h.99v7.51h-.99zM69.577 8.59h-.983V2.003h-2.156V1.08h5.295v.922h-2.156v6.589zM81.746 7.624c-.759.76-1.699 1.138-2.82 1.138-1.128 0-2.068-.379-2.827-1.138-.757-.758-1.134-1.688-1.134-2.79 0-1.1.377-2.03 1.134-2.789.76-.76 1.7-1.138 2.827-1.138 1.115 0 2.055.379 2.813 1.145.764.764 1.14 1.688 1.14 2.783 0 1.1-.376 2.03-1.133 2.789zm-4.913-.63c.57.563 1.265.844 2.093.844.821 0 1.522-.282 2.087-.844.57-.562.858-1.284.858-2.16 0-.875-.289-1.597-.858-2.16-.565-.561-1.266-.843-2.087-.843-.828 0-1.523.282-2.094.844-.569.562-.858 1.284-.858 2.16 0 .875.289 1.597.858 2.16zM84.272 8.59V1.08h1.203l3.741 5.841h.043l-.043-1.444V1.08h.99v7.51h-1.033l-3.918-6.13h-.043l.043 1.451v4.68h-.983z" fill="#3F3E56" stroke="#3F3E56" stroke-width=".154" stroke-miterlimit="10"/><path d="M74.723 19.559c-3.014 0-5.476 2.24-5.476 5.33 0 3.064 2.462 5.328 5.476 5.328 3.02 0 5.483-2.264 5.483-5.328 0-3.09-2.463-5.33-5.483-5.33zm0 8.559c-1.654 0-3.077-1.333-3.077-3.23 0-1.921 1.423-3.23 3.077-3.23s3.083 1.309 3.083 3.23c0 1.897-1.43 3.23-3.083 3.23zm-11.949-8.559c-3.02 0-5.476 2.24-5.476 5.33 0 3.064 2.456 5.328 5.476 5.328s5.477-2.264 5.477-5.328c0-3.09-2.458-5.33-5.477-5.33zm0 8.559c-1.655 0-3.083-1.333-3.083-3.23 0-1.921 1.428-3.23 3.083-3.23 1.654 0 3.077 1.309 3.077 3.23 0 1.897-1.423 3.23-3.077 3.23zm-14.218-6.925v2.264h5.539c-.162 1.265-.596 2.196-1.26 2.844-.808.783-2.067 1.652-4.28 1.652-3.408 0-6.077-2.686-6.077-6.014 0-3.328 2.67-6.013 6.078-6.013 1.843 0 3.184.703 4.174 1.614l1.634-1.596c-1.384-1.29-3.226-2.282-5.808-2.282-4.674 0-8.603 3.714-8.603 8.277 0 4.564 3.928 8.277 8.603 8.277 2.526 0 4.424-.808 5.916-2.324 1.528-1.492 2.005-3.59 2.005-5.285 0-.526-.045-1.01-.125-1.415h-7.796zm58.141 1.755c-.451-1.192-1.841-3.389-4.674-3.389-2.807 0-5.144 2.16-5.144 5.33 0 2.985 2.313 5.328 5.413 5.328a5.44 5.44 0 004.549-2.362l-1.86-1.21c-.621.886-1.466 1.473-2.689 1.473-1.214 0-2.085-.544-2.643-1.615l7.3-2.949-.252-.606zm-7.443 1.774a2.956 2.956 0 012.851-3.107c.952 0 1.761.466 2.03 1.131l-4.88 1.977zm-5.933 5.17h2.4V14.231h-2.4v15.661zm-3.93-9.146h-.08c-.54-.623-1.568-1.187-2.87-1.187-2.734 0-5.233 2.343-5.233 5.347 0 2.986 2.5 5.31 5.233 5.31 1.302 0 2.33-.568 2.87-1.21h.08v.764c0 2.038-1.115 3.132-2.913 3.132-1.466 0-2.376-1.033-2.751-1.902l-2.087.85C82.24 33.263 83.834 35 86.478 35c2.813 0 5.187-1.616 5.187-5.549v-9.569h-2.274v.863zm-2.745 7.372c-1.654 0-3.038-1.352-3.038-3.212 0-1.878 1.384-3.248 3.038-3.248 1.63 0 2.915 1.37 2.915 3.248 0 1.86-1.285 3.212-2.915 3.212zm31.286-13.887h-5.739v15.661h2.393v-5.934h3.346c2.658 0 5.264-1.877 5.264-4.864 0-2.985-2.613-4.863-5.264-4.863zm.062 7.549h-3.408v-5.37h3.408a2.75 2.75 0 012.808 2.684c0 1.212-1.021 2.686-2.808 2.686zm14.795-2.25c-1.729 0-3.528.745-4.267 2.397l2.124.87c.457-.87 1.297-1.152 2.186-1.152 1.242 0 2.501.728 2.52 2.014v.165c-.433-.245-1.36-.607-2.501-.607-2.287 0-4.618 1.23-4.618 3.524 0 2.099 1.874 3.45 3.98 3.45 1.61 0 2.499-.709 3.057-1.534h.082v1.21h2.312V23.86c0-2.777-2.124-4.33-4.875-4.33zm-.289 8.582c-.783 0-1.873-.38-1.873-1.327 0-1.212 1.36-1.677 2.537-1.677 1.054 0 1.548.227 2.188.526-.188 1.45-1.466 2.478-2.852 2.478zm13.585-8.24l-2.751 6.79h-.082l-2.844-6.79h-2.581l4.273 9.488-2.438 5.28h2.501l6.585-14.768h-2.663zm-21.573 10.02h2.4V14.231h-2.4v15.661z" fill="#3F3E56"/><path d="M.678 1.75c-.377.386-.595.986-.595 1.763V31.22c0 .777.218 1.377.595 1.762l.093.085 15.903-15.52v-.367L.77 1.66l-.093.09z" fill="url(#paint0_linear_1_4919)"/><path d="M21.972 22.723l-5.296-5.176v-.366l5.302-5.176.119.067 6.278 3.488c1.792.99 1.792 2.618 0 3.614l-6.278 3.482-.125.067z" fill="url(#paint1_linear_1_4919)"/><path d="M22.094 22.656l-5.42-5.292L.678 32.983c.595.61 1.566.684 2.67.074l18.746-10.401z" fill="url(#paint2_linear_1_4919)"/><path d="M22.094 12.071L3.347 1.671c-1.103-.605-2.074-.531-2.669.08l15.996 15.612 5.42-5.292z" fill="url(#paint3_linear_1_4919)"/><defs><linearGradient id="paint0_linear_1_4919" x1="15.262" y1="31.509" x2="-5.759" y2="9.979" gradientUnits="userSpaceOnUse"><stop stop-color="#00A0FF"/><stop offset=".007" stop-color="#00A1FF"/><stop offset=".26" stop-color="#00BEFF"/><stop offset=".512" stop-color="#00D2FF"/><stop offset=".76" stop-color="#00DFFF"/><stop offset="1" stop-color="#00E3FF"/></linearGradient><linearGradient id="paint1_linear_1_4919" x1="30.708" y1="17.362" x2="-.343" y2="17.362" gradientUnits="userSpaceOnUse"><stop stop-color="#FFE000"/><stop offset=".409" stop-color="#FFBD00"/><stop offset=".775" stop-color="orange"/><stop offset="1" stop-color="#FF9C00"/></linearGradient><linearGradient id="paint2_linear_1_4919" x1="19.147" y1="14.487" x2="-9.359" y2="-14.709" gradientUnits="userSpaceOnUse"><stop stop-color="#FF3A44"/><stop offset="1" stop-color="#C31162"/></linearGradient><linearGradient id="paint3_linear_1_4919" x1="-3.348" y1="42.2" x2="9.381" y2="29.163" gradientUnits="userSpaceOnUse"><stop stop-color="#32A071"/><stop offset=".069" stop-color="#2DA771"/><stop offset=".476" stop-color="#15CF74"/><stop offset=".801" stop-color="#06E775"/><stop offset="1" stop-color="#00F076"/></linearGradient></defs></svg>