<svg width="32" height="32" fill="none" xmlns="http://www.w3.org/2000/svg"><path fill-rule="evenodd" clip-rule="evenodd" d="M22 32.001H10c-5.522 0-10-4.477-10-10v-12C0 4.479 4.478 0 10 0h12c5.522 0 10 4.478 10 10v12c0 5.523-4.478 10-10 10zm7-22c0-3.86-3.14-7-7-7H10c-3.86 0-7 3.14-7 7v12c0 3.86 3.14 7 7 7h12c3.86 0 7-3.14 7-7v-12zm-4.4-1.534a1.067 1.067 0 11.002-2.132 1.067 1.067 0 01-.002 2.132zM16 24a8 8 0 110-16 8 8 0 010 16zm0-12.998c-2.757 0-5 2.241-5 5 0 2.754 2.243 5 5 5 2.756 0 5-2.246 5-5 0-2.759-2.244-5-5-5z" fill="#3F3E56"/><path fill-rule="evenodd" clip-rule="evenodd" d="M22 32.001H10c-5.522 0-10-4.477-10-10v-12C0 4.479 4.478 0 10 0h12c5.522 0 10 4.478 10 10v12c0 5.523-4.478 10-10 10zm7-22c0-3.86-3.14-7-7-7H10c-3.86 0-7 3.14-7 7v12c0 3.86 3.14 7 7 7h12c3.86 0 7-3.14 7-7v-12zm-4.4-1.534a1.067 1.067 0 11.002-2.132 1.067 1.067 0 01-.002 2.132zM16 24a8 8 0 110-16 8 8 0 010 16zm0-12.998c-2.757 0-5 2.241-5 5 0 2.754 2.243 5 5 5 2.756 0 5-2.246 5-5 0-2.759-2.244-5-5-5z" fill="url(#paint0_linear_1_4856)"/><defs><linearGradient id="paint0_linear_1_4856" x1="16" y1="-2.999" x2="3" y2="29.001" gradientUnits="userSpaceOnUse"><stop stop-color="#9E00FF"/><stop offset=".316" stop-color="#FD02B7"/><stop offset=".67" stop-color="#FF004D"/><stop offset="1" stop-color="#FFC228"/></linearGradient></defs></svg>