<svg width="164" height="66" fill="none" xmlns="http://www.w3.org/2000/svg"><path d="M24.387 2.184l-5.5 33.131h-8.008l5.5-33.131h8.008zM24.027 35.315l.728-4.513 13.832-14.026.064-.162h-11.13l1.052-6.147h20.545l-.776 4.95-12.926 13.59-.065.16h11.065l-.986 6.148H24.026zM50.675 35.315l.728-4.513 13.832-14.026.064-.162H54.17l1.052-6.147h20.545l-.776 4.95-12.926 13.59-.065.16h11.066l-.987 6.148H50.675zM77.21 35.315l4.142-24.848h7.91l-4.141 24.848h-7.91zm8.655-27.76c-1.122 0-2.033-.372-2.734-1.116-.701-.745-.976-1.634-.825-2.67.15-1.046.68-1.936 1.585-2.669.906-.733 1.915-1.1 3.025-1.1 1.122 0 2.023.367 2.702 1.1.69.733.96 1.623.809 2.67-.13 1.035-.647 1.924-1.553 2.669-.895.744-1.898 1.116-3.009 1.116zM90.156 35.315l5.5-33.131h22.616l-1.1 6.503h-14.608l-1.1 6.795h13.168l-1.1 6.52h-13.168l-2.2 13.313h-8.008zM116.804 35.315l4.142-24.848h7.91l-4.141 24.848h-7.911zm8.655-27.76c-1.121 0-2.033-.372-2.734-1.116-.701-.745-.976-1.634-.825-2.67.151-1.046.68-1.936 1.586-2.669.905-.733 1.914-1.1 3.025-1.1 1.121 0 2.022.367 2.701 1.1.691.733.96 1.623.809 2.67-.129 1.035-.647 1.924-1.553 2.669-.895.744-1.898 1.116-3.009 1.116zM147.917 10.467l-.986 5.824h-15.676l.987-5.824h15.675zm-11.421-5.954h7.911l-3.818 22.989c-.075.485-.065.879.032 1.18.108.292.302.502.583.631.291.12.647.178 1.068.178.291 0 .614-.032.97-.097l.809-.145.259 5.71c-.421.119-.987.254-1.699.405-.701.162-1.52.264-2.459.307-1.898.076-3.467-.145-4.707-.663-1.23-.529-2.098-1.348-2.605-2.46-.496-1.11-.593-2.501-.291-4.173l3.947-23.862z" fill="#fff"/><path d="M2.35 56.857L164 46.77 0 65.629l2.35-8.77z" fill="#FF42A8"/></svg>