<svg width="114" height="46" fill="none" xmlns="http://www.w3.org/2000/svg"><path d="M16.952 1.518l-3.824 23.03H7.562l3.823-23.03h5.567zM16.702 24.548l.506-3.137 9.614-9.75.045-.112h-7.736l.73-4.273h14.282l-.54 3.44-8.985 9.447-.045.112h7.692l-.686 4.273H16.702zM35.225 24.548l.506-3.137 9.615-9.75.045-.112h-7.737l.731-4.273h14.282l-.54 3.44-8.985 9.447-.045.112h7.692l-.686 4.273H35.225zM53.67 24.548l2.88-17.272h5.498L59.17 24.548H53.67zm6.017-19.296c-.78 0-1.413-.26-1.9-.776-.488-.518-.68-1.136-.574-1.856.105-.727.472-1.346 1.102-1.855.63-.51 1.33-.765 2.103-.765.78 0 1.405.255 1.877.765.48.51.668 1.128.563 1.855-.09.72-.45 1.338-1.08 1.856-.622.517-1.32.776-2.091.776zM62.67 24.548l3.823-23.03h15.72l-.764 4.52H71.295l-.765 4.724h9.153l-.764 4.532h-9.154l-1.53 9.254H62.67zM81.193 24.548l2.879-17.272h5.499l-2.879 17.272h-5.499zM87.21 5.252c-.78 0-1.413-.26-1.9-.776-.487-.518-.678-1.136-.573-1.856.104-.727.472-1.346 1.102-1.855.63-.51 1.33-.765 2.102-.765.78 0 1.406.255 1.878.765.48.51.668 1.128.563 1.855-.09.72-.45 1.338-1.08 1.856-.622.517-1.32.776-2.092.776zM102.821 7.276l-.686 4.048H91.238l.686-4.048h10.897zm-7.94-4.139h5.499l-2.653 15.98c-.053.337-.045.61.022.82.075.203.21.35.405.44.202.082.45.123.742.123a3.8 3.8 0 00.675-.067c.247-.045.435-.08.562-.102l.18 3.97c-.292.083-.686.176-1.18.281a9.642 9.642 0 01-1.71.214c-1.32.052-2.41-.101-3.272-.461-.855-.368-1.459-.937-1.81-1.71-.346-.772-.413-1.739-.203-2.9L94.88 3.136z" fill="#3F2264"/><path d="M1.633 39.523L114 32.51 0 45.62l1.633-6.097z" fill="#FF42A8"/></svg>