<svg width="80" height="64" fill="none" xmlns="http://www.w3.org/2000/svg"><path d="M18.663 62c-5.174 0-9.283-1.527-12.326-4.582C3.446 54.364 2 50.51 2 45.855 2 36.69 3.75 28.4 7.25 20.982c3.652-7.418 8.445-13.237 14.38-17.455C22.848 2.51 24.674 2 27.108 2c1.979 0 3.424.364 4.337 1.09-5.021 4.365-8.902 9.237-11.641 14.62-2.739 5.38-4.109 10.326-4.109 14.835 1.218-.581 2.892-.872 5.022-.872 4.109 0 7.533 1.381 10.272 4.145 2.739 2.764 4.108 6.255 4.108 10.473 0 4.655-1.598 8.436-4.793 11.345C27.26 60.546 23.38 62 18.663 62zM61.566 62c-5.174 0-9.283-1.527-12.326-4.582-2.892-3.054-4.337-6.909-4.337-11.563 0-9.164 1.75-17.455 5.25-24.873 3.652-7.418 8.445-13.237 14.38-17.455C65.75 2.51 67.576 2 70.01 2c1.978 0 3.424.364 4.337 1.09-5.022 4.365-8.902 9.237-11.641 14.62-2.74 5.38-4.109 10.326-4.109 14.835 1.218-.581 2.891-.872 5.022-.872 4.108 0 7.532 1.381 10.271 4.145C76.631 38.582 78 42.073 78 46.291c0 4.655-1.598 8.436-4.793 11.345C70.163 60.546 66.283 62 61.566 62z" stroke="#FFB4DC" stroke-width="3"/></svg>