<svg width="106" height="18" fill="none" xmlns="http://www.w3.org/2000/svg"><path d="M9 0l2.38 5.723 6.18.496-4.708 4.032 1.438 6.03L9 13.05l-5.29 3.231 1.438-6.03L.44 6.22l6.18-.496L9 0zM31 0l2.38 5.723 6.18.496-4.708 4.032 1.438 6.03L31 13.05l-5.29 3.231 1.438-6.03-4.707-4.032 6.178-.496L31 0zM53 0l2.38 5.723 6.18.496-4.708 4.032 1.438 6.03L53 13.05l-5.29 3.231 1.438-6.03L44.44 6.22l6.18-.496L53 0zM75 0l2.38 5.723 6.18.496-4.708 4.032 1.438 6.03L75 13.05l-5.29 3.231 1.438-6.03-4.707-4.032 6.178-.496L75 0zM97 0l2.38 5.723 6.18.496-4.708 4.032 1.438 6.03L97 13.05l-5.29 3.231 1.438-6.03-4.707-4.032 6.178-.496L97 0z" fill="#FD8C02"/></svg>