<svg width="148" height="39" viewBox="0 0 148 39" fill="none" xmlns="http://www.w3.org/2000/svg">
<path d="M23.3732 17.8352C23.3341 13.5985 26.9312 11.5373 27.0957 11.4414C25.0585 8.54544 21.9009 8.14977 20.7913 8.11822C18.1393 7.84611 15.5669 9.66542 14.216 9.66542C12.8381 9.66542 10.7577 8.14451 8.51561 8.1892C5.63038 8.23258 2.9312 9.86129 1.45083 12.3905C-1.60428 17.5474 0.674249 25.1256 3.60128 29.294C5.06546 31.3355 6.77638 33.6149 9.01581 33.5347C11.2067 33.4466 12.0251 32.1729 14.669 32.1729C17.2886 32.1729 18.0571 33.5347 20.341 33.4834C22.6923 33.4466 24.1727 31.4328 25.5857 29.3729C27.2777 27.033 27.9572 24.7287 27.9842 24.6104C27.9289 24.5919 23.4177 22.9133 23.3732 17.8352Z" fill="#3F3E56"/>
<path d="M19.0588 5.3761C20.2372 3.93932 21.0434 1.98461 20.8196 0.000976562C19.1141 0.0745904 16.9812 1.15119 15.753 2.55643C14.6663 3.79472 13.6955 5.82436 13.9463 7.73306C15.8622 7.8724 17.8292 6.79054 19.0588 5.3761Z" fill="#3F3E56"/>
<path d="M55.0804 33.2428H52.0186L50.3414 28.1043H44.5116L42.9139 33.2428H39.933L45.7088 15.749H49.2763L55.0804 33.2428ZM49.8358 25.9485L48.319 21.3805C48.1586 20.9138 47.8579 19.8149 47.4144 18.0849H47.3604C47.1838 18.829 46.8993 19.9279 46.5083 21.3805L45.0185 25.9485H49.8358Z" fill="#3F3E56"/>
<path d="M69.9332 26.7801C69.9332 28.9254 69.3386 30.6212 68.1495 31.866C67.0844 32.9742 65.7617 33.5276 64.183 33.5276C62.4788 33.5276 61.2546 32.9308 60.509 31.7372H60.4551V38.3822H57.5806V24.7807C57.5806 23.432 57.5442 22.0478 57.4741 20.6281H60.0021L60.1625 22.6275H60.2164C61.175 21.1211 62.6298 20.3691 64.582 20.3691C66.1082 20.3691 67.3823 20.9567 68.4016 22.1332C69.4236 23.3111 69.9332 24.8596 69.9332 26.7801ZM67.0048 26.8827C67.0048 25.6549 66.7217 24.6427 66.1527 23.8461C65.5312 23.0153 64.6966 22.5999 63.6504 22.5999C62.9412 22.5999 62.2968 22.8313 61.7211 23.2874C61.144 23.7475 60.7665 24.3482 60.5899 25.0923C60.5009 25.4393 60.4564 25.7232 60.4564 25.9467V28.05C60.4564 28.9675 60.7449 29.7418 61.322 30.3741C61.899 31.0063 62.6487 31.3218 63.5709 31.3218C64.6535 31.3218 65.4961 30.9143 66.0988 30.1019C66.7028 29.2882 67.0048 28.2156 67.0048 26.8827Z" fill="#3F3E56"/>
<path d="M84.8161 26.7801C84.8161 28.9254 84.2216 30.6212 83.0311 31.866C81.9673 32.9742 80.6447 33.5276 79.0659 33.5276C77.3617 33.5276 76.1375 32.9308 75.3933 31.7372H75.3394V38.3822H72.4649V24.7807C72.4649 23.432 72.4285 22.0478 72.3584 20.6281H74.8863L75.0468 22.6275H75.1007C76.058 21.1211 77.5127 20.3691 79.4663 20.3691C80.9912 20.3691 82.2653 20.9567 83.2872 22.1332C84.3052 23.3111 84.8161 24.8596 84.8161 26.7801ZM81.8878 26.8827C81.8878 25.6549 81.6033 24.6427 81.0343 23.8461C80.4128 23.0153 79.5809 22.5999 78.5333 22.5999C77.8228 22.5999 77.1797 22.8313 76.6027 23.2874C76.0256 23.7475 75.6494 24.3482 75.4728 25.0923C75.3852 25.4393 75.3394 25.7232 75.3394 25.9467V28.05C75.3394 28.9675 75.6279 29.7418 76.2022 30.3741C76.7793 31.005 77.5289 31.3218 78.4538 31.3218C79.5364 31.3218 80.3791 30.9143 80.9817 30.1019C81.5858 29.2882 81.8878 28.2156 81.8878 26.8827Z" fill="#3F3E56"/>
<path d="M101.454 28.3365C101.454 29.8245 100.924 31.0352 99.8606 31.9699C98.6916 32.9913 97.0643 33.5013 94.9732 33.5013C93.0425 33.5013 91.4947 33.1385 90.3231 32.4115L90.9892 30.0756C92.2511 30.8196 93.6357 31.193 95.1444 31.193C96.2271 31.193 97.0697 30.9537 97.6751 30.4779C98.2777 30.002 98.5784 29.3631 98.5784 28.5665C98.5784 27.8567 98.3303 27.2586 97.8328 26.7735C97.338 26.2885 96.5115 25.8376 95.3574 25.4209C92.216 24.2785 90.6467 22.6051 90.6467 20.4046C90.6467 18.9665 91.1968 17.7874 92.2983 16.8698C93.3958 15.951 94.8599 15.4922 96.6909 15.4922C98.3236 15.4922 99.6799 15.7696 100.763 16.323L100.044 18.6076C99.0327 18.0713 97.8894 17.8031 96.61 17.8031C95.5988 17.8031 94.8087 18.0463 94.2425 18.5301C93.7638 18.9626 93.5238 19.4897 93.5238 20.1141C93.5238 20.8055 93.7975 21.3774 94.3476 21.8269C94.8262 22.2423 95.6959 22.6919 96.9578 23.177C98.5015 23.783 99.6354 24.4915 100.365 25.3039C101.092 26.1136 101.454 27.1271 101.454 28.3365Z" fill="#3F3E56"/>
<path d="M110.956 22.7312H107.787V28.8556C107.787 30.4133 108.345 31.1915 109.464 31.1915C109.978 31.1915 110.404 31.1481 110.741 31.0614L110.821 33.1896C110.254 33.396 109.509 33.4998 108.585 33.4998C107.45 33.4998 106.563 33.162 105.923 32.4876C105.285 31.812 104.964 30.6788 104.964 29.0869V22.7285H103.076V20.6253H104.964V18.3156L107.787 17.4849V20.6253H110.956V22.7312Z" fill="#3F3E56"/>
<path d="M125.251 26.8306C125.251 28.7695 124.682 30.3614 123.547 31.6063C122.357 32.8879 120.777 33.5268 118.807 33.5268C116.909 33.5268 115.397 32.9129 114.27 31.6851C113.143 30.4574 112.579 28.9075 112.579 27.0396C112.579 25.0849 113.159 23.4838 114.323 22.2389C115.483 20.9927 117.05 20.3696 119.02 20.3696C120.918 20.3696 122.446 20.9835 123.598 22.2126C124.701 23.4049 125.251 24.9442 125.251 26.8306ZM122.269 26.9213C122.269 25.7579 122.014 24.7602 121.498 23.9281C120.895 22.9211 120.034 22.419 118.917 22.419C117.762 22.419 116.884 22.9225 116.282 23.9281C115.765 24.7615 115.51 25.775 115.51 26.9738C115.51 28.1372 115.765 29.1349 116.282 29.9657C116.903 30.9727 117.771 31.4748 118.892 31.4748C119.989 31.4748 120.851 30.9621 121.472 29.9394C122.002 29.0916 122.269 28.0833 122.269 26.9213Z" fill="#3F3E56"/>
<path d="M134.593 23.0929C134.309 23.0416 134.005 23.0153 133.687 23.0153C132.676 23.0153 131.894 23.3873 131.344 24.1326C130.865 24.7899 130.625 25.6207 130.625 26.6237V33.2424H127.752L127.779 24.6006C127.779 23.1467 127.743 21.823 127.671 20.6294H130.175L130.28 23.0429H130.36C130.663 22.2134 131.142 21.5456 131.797 21.0448C132.437 20.5939 133.129 20.3691 133.875 20.3691C134.14 20.3691 134.38 20.3875 134.593 20.4204V23.0929Z" fill="#3F3E56"/>
<path d="M147.45 26.3387C147.45 26.8408 147.416 27.2641 147.345 27.6098H138.722C138.755 28.856 139.172 29.809 139.973 30.4663C140.699 31.0539 141.639 31.3483 142.793 31.3483C144.07 31.3483 145.235 31.1498 146.282 30.7515L146.733 32.6971C145.509 33.2176 144.063 33.4766 142.395 33.4766C140.389 33.4766 138.815 32.9008 137.669 31.7506C136.525 30.6004 135.952 29.0558 135.952 27.1182C135.952 25.216 136.485 23.632 137.551 22.3688C138.668 21.0201 140.176 20.3457 142.075 20.3457C143.939 20.3457 145.351 21.0201 146.309 22.3688C147.068 23.4401 147.45 24.7652 147.45 26.3387ZM144.709 25.6117C144.728 24.7809 144.541 24.0632 144.151 23.4572C143.653 22.6777 142.889 22.2886 141.86 22.2886C140.921 22.2886 140.156 22.6685 139.572 23.4309C139.094 24.0369 138.809 24.7638 138.722 25.6104H144.709V25.6117Z" fill="#3F3E56"/>
<path d="M48.8851 4.98502C48.8851 6.53222 48.4092 7.6969 47.4587 8.47905C46.5783 9.20073 45.3271 9.56222 43.7065 9.56222C42.903 9.56222 42.2153 9.52805 41.6396 9.45969V1.00592C42.3906 0.887617 43.1996 0.827148 44.0732 0.827148C45.617 0.827148 46.7805 1.15447 47.5652 1.8091C48.4442 2.54919 48.8851 3.60739 48.8851 4.98502ZM47.3953 5.02314C47.3953 4.02015 47.1229 3.25115 46.5783 2.71482C46.0336 2.1798 45.2381 1.91164 44.1905 1.91164C43.7456 1.91164 43.3667 1.94056 43.0526 2.00103V8.42778C43.2265 8.45407 43.5447 8.4659 44.0072 8.4659C45.0884 8.4659 45.923 8.17276 46.5108 7.58648C47.0987 7.0002 47.3953 6.14575 47.3953 5.02314Z" fill="#3F3E56"/>
<path d="M56.7848 6.33637C56.7848 7.2894 56.5057 8.07024 55.9475 8.68281C55.3624 9.31247 54.5871 9.62665 53.6191 9.62665C52.6861 9.62665 51.9432 9.32562 51.3891 8.72093C50.8363 8.11756 50.5599 7.35645 50.5599 6.4389C50.5599 5.47929 50.8444 4.69189 51.4161 4.08063C51.9877 3.46937 52.7562 3.16309 53.7243 3.16309C54.6572 3.16309 55.4069 3.46411 55.9745 4.06748C56.5138 4.65377 56.7848 5.41094 56.7848 6.33637ZM55.3192 6.38106C55.3192 5.80924 55.1925 5.31892 54.9404 4.9101C54.6438 4.41584 54.2218 4.1687 53.673 4.1687C53.1054 4.1687 52.674 4.41584 52.3774 4.9101C52.1239 5.31892 51.9985 5.81713 51.9985 6.40604C51.9985 6.97786 52.1252 7.46818 52.3774 7.877C52.6834 8.37127 53.1095 8.6184 53.6595 8.6184C54.1988 8.6184 54.6222 8.36732 54.9269 7.86386C55.1884 7.44715 55.3192 6.95288 55.3192 6.38106Z" fill="#3F3E56"/>
<path d="M67.3751 3.28857L65.3864 9.48528H64.0921L63.2684 6.79443C63.0594 6.12271 62.8895 5.45493 62.7574 4.7924H62.7318C62.6091 5.47333 62.4392 6.1398 62.2208 6.79443L61.3458 9.48528H60.0366L58.1666 3.28857H59.6187L60.3373 6.23444C60.5112 6.93115 60.6541 7.59499 60.7687 8.22333H60.7943C60.8995 7.70541 61.0734 7.04551 61.3188 6.24759L62.2208 3.28989H63.3722L64.2364 6.18449C64.4454 6.8904 64.6152 7.57001 64.746 8.22465H64.7851C64.8809 7.5871 65.0251 6.90748 65.2166 6.18449L65.9878 3.28989H67.3751V3.28857Z" fill="#3F3E56"/>
<path d="M74.6997 9.48603H73.2867V5.93679C73.2867 4.8431 72.8607 4.29625 72.0059 4.29625C71.5866 4.29625 71.2482 4.44611 70.9853 4.74714C70.7251 5.04817 70.593 5.40309 70.593 5.80928V9.48472H69.18V5.06C69.18 4.51578 69.1625 3.92555 69.1288 3.28669H70.3705L70.4366 4.2555H70.4757C70.6402 3.95447 70.8855 3.70603 71.2078 3.50753C71.5907 3.27617 72.0194 3.15918 72.4886 3.15918C73.0818 3.15918 73.5753 3.34584 73.9676 3.72049C74.4557 4.17926 74.6997 4.86413 74.6997 5.77379V9.48603Z" fill="#3F3E56"/>
<path d="M78.5975 9.48633H77.1859V0.446289H78.5975V9.48633Z" fill="#3F3E56"/>
<path d="M86.9175 6.33637C86.9175 7.2894 86.6384 8.07024 86.0802 8.68281C85.4951 9.31247 84.7185 9.62665 83.7518 9.62665C82.8175 9.62665 82.0746 9.32562 81.5218 8.72093C80.969 8.11756 80.6926 7.35645 80.6926 6.4389C80.6926 5.47929 80.9771 4.69189 81.5488 4.08063C82.1204 3.46937 82.8889 3.16309 83.8556 3.16309C84.7899 3.16309 85.5382 3.46411 86.1072 4.06748C86.6465 4.65377 86.9175 5.41094 86.9175 6.33637ZM85.4506 6.38106C85.4506 5.80924 85.3238 5.31892 85.0717 4.9101C84.7764 4.41584 84.3531 4.1687 83.8057 4.1687C83.2368 4.1687 82.8053 4.41584 82.5101 4.9101C82.2566 5.31892 82.1312 5.81713 82.1312 6.40604C82.1312 6.97786 82.2579 7.46818 82.5101 7.877C82.8161 8.37127 83.2422 8.6184 83.7922 8.6184C84.3315 8.6184 84.7535 8.36732 85.0582 7.86386C85.3211 7.44715 85.4506 6.95288 85.4506 6.38106Z" fill="#3F3E56"/>
<path d="M93.7543 9.48599H92.4856L92.3804 8.7722H92.3413C91.9072 9.34139 91.2884 9.62665 90.4848 9.62665C89.8849 9.62665 89.3995 9.43867 89.0341 9.06534C88.7025 8.72619 88.5366 8.30422 88.5366 7.80339C88.5366 7.04622 88.8602 6.46914 89.5114 6.06952C90.1612 5.6699 91.0754 5.47403 92.2524 5.48324V5.36756C92.2524 4.55123 91.8128 4.14373 90.9324 4.14373C90.3055 4.14373 89.7527 4.29753 89.2755 4.6025L88.9883 3.6981C89.5788 3.34186 90.3082 3.16309 91.1684 3.16309C92.8294 3.16309 93.6626 4.01753 93.6626 5.72643V8.00845C93.6626 8.6276 93.6936 9.12055 93.7543 9.48599ZM92.2874 7.35645V6.40078C90.7289 6.37449 89.9496 6.7912 89.9496 7.64959C89.9496 7.97296 90.0386 8.21484 90.2206 8.37652C90.4026 8.53821 90.6345 8.6184 90.9109 8.6184C91.221 8.6184 91.5108 8.52244 91.7751 8.33183C92.0407 8.13991 92.2038 7.89672 92.2645 7.59832C92.2793 7.53128 92.2874 7.44978 92.2874 7.35645Z" fill="#3F3E56"/>
<path d="M101.781 9.48633H100.528L100.461 8.49123H100.422C100.022 9.2484 99.3398 9.62699 98.3812 9.62699C97.6154 9.62699 96.9776 9.33385 96.4721 8.74757C95.9665 8.16129 95.7144 7.40017 95.7144 6.46554C95.7144 5.46255 95.988 4.65017 96.5381 4.02971C97.0707 3.45131 97.7232 3.16211 98.4998 3.16211C99.3532 3.16211 99.9505 3.44211 100.29 4.00342H100.317V0.446289H101.732V7.81688C101.732 8.42025 101.748 8.9763 101.781 9.48633ZM100.317 6.87304V5.83982C100.317 5.66104 100.304 5.51644 100.278 5.40602C100.199 5.07476 100.027 4.79608 99.7672 4.57129C99.5042 4.34651 99.1874 4.23346 98.822 4.23346C98.2949 4.23346 97.8823 4.43721 97.579 4.84603C97.2783 5.25485 97.126 5.77672 97.126 6.41427C97.126 7.02684 97.2702 7.52374 97.5601 7.90627C97.8661 8.31377 98.2787 8.51752 98.7951 8.51752C99.2589 8.51752 99.6296 8.34795 99.9114 8.00748C100.184 7.69331 100.317 7.31472 100.317 6.87304Z" fill="#3F3E56"/>
<path d="M113.867 6.33637C113.867 7.2894 113.588 8.07024 113.03 8.68281C112.445 9.31247 111.671 9.62665 110.701 9.62665C109.77 9.62665 109.027 9.32562 108.472 8.72093C107.919 8.11756 107.642 7.35645 107.642 6.4389C107.642 5.47929 107.927 4.69189 108.498 4.08063C109.07 3.46937 109.839 3.16309 110.808 3.16309C111.74 3.16309 112.491 3.46411 113.057 4.06748C113.596 4.65377 113.867 5.41094 113.867 6.33637ZM112.403 6.38106C112.403 5.80924 112.276 5.31892 112.024 4.9101C111.726 4.41584 111.306 4.1687 110.755 4.1687C110.189 4.1687 109.758 4.41584 109.46 4.9101C109.206 5.31892 109.081 5.81713 109.081 6.40604C109.081 6.97786 109.208 7.46818 109.46 7.877C109.766 8.37127 110.192 8.6184 110.742 8.6184C111.281 8.6184 111.706 8.36732 112.011 7.86386C112.271 7.44715 112.403 6.95288 112.403 6.38106Z" fill="#3F3E56"/>
<path d="M121.463 9.48603H120.052V5.93679C120.052 4.8431 119.626 4.29625 118.769 4.29625C118.35 4.29625 118.012 4.44611 117.75 4.74714C117.489 5.04817 117.358 5.40309 117.358 5.80928V9.48472H115.944V5.06C115.944 4.51578 115.927 3.92555 115.894 3.28669H117.134L117.2 4.2555H117.239C117.405 3.95447 117.65 3.70603 117.971 3.50753C118.356 3.27617 118.783 3.15918 119.253 3.15918C119.845 3.15918 120.339 3.34584 120.731 3.72049C121.221 4.17926 121.463 4.86413 121.463 5.77379V9.48603Z" fill="#3F3E56"/>
<path d="M130.972 4.32126H129.416V7.33155C129.416 8.0966 129.693 8.47913 130.24 8.47913C130.493 8.47913 130.704 8.4581 130.87 8.41472L130.906 9.45978C130.627 9.56231 130.26 9.61358 129.809 9.61358C129.25 9.61358 128.816 9.44795 128.502 9.11668C128.187 8.78542 128.03 8.22806 128.03 7.44591V4.32126H127.101V3.28936H128.03V2.1536L129.415 1.74609V3.28804H130.971V4.32126H130.972Z" fill="#3F3E56"/>
<path d="M138.453 9.48633H137.039V5.96339C137.039 4.8526 136.612 4.29656 135.759 4.29656C135.104 4.29656 134.656 4.61862 134.411 5.26274C134.369 5.39814 134.345 5.56377 134.345 5.75832V9.48502H132.933V0.446289H134.345V4.18088H134.372C134.817 3.50126 135.454 3.16211 136.281 3.16211C136.866 3.16211 137.35 3.34878 137.734 3.72342C138.213 4.19008 138.453 4.88415 138.453 5.8017V9.48633Z" fill="#3F3E56"/>
<path d="M146.171 6.09509C146.171 6.34223 146.152 6.54992 146.119 6.7195H141.881C141.9 7.33207 142.102 7.79873 142.495 8.12211C142.853 8.4113 143.316 8.5559 143.882 8.5559C144.509 8.5559 145.081 8.45863 145.596 8.26276L145.817 9.21974C145.214 9.47476 144.505 9.60227 143.684 9.60227C142.7 9.60227 141.924 9.31965 141.364 8.7544C140.8 8.18915 140.521 7.43066 140.521 6.47894C140.521 5.54431 140.781 4.7661 141.306 4.14564C141.853 3.48312 142.593 3.15186 143.527 3.15186C144.442 3.15186 145.136 3.48312 145.605 4.14564C145.984 4.67146 146.171 5.32215 146.171 6.09509ZM144.823 5.73886C144.834 5.33004 144.741 4.97774 144.549 4.68066C144.304 4.29813 143.931 4.10621 143.425 4.10621C142.964 4.10621 142.588 4.29287 142.301 4.66751C142.066 4.96591 141.927 5.32215 141.881 5.73886H144.823Z" fill="#3F3E56"/>
</svg>
