<svg width="148" height="39" viewBox="0 0 148 39" fill="none" xmlns="http://www.w3.org/2000/svg">
<path d="M23.3732 17.8343C23.3341 13.5975 26.9312 11.5363 27.0957 11.4404C25.0585 8.54446 21.9009 8.14879 20.7913 8.11724C18.1393 7.84513 15.5669 9.66445 14.216 9.66445C12.8381 9.66445 10.7577 8.14353 8.51561 8.18823C5.63038 8.23161 2.9312 9.86031 1.45083 12.3895C-1.60428 17.5464 0.674249 25.1247 3.60128 29.2931C5.06546 31.3345 6.77638 33.6139 9.01581 33.5337C11.2067 33.4457 12.0251 32.1719 14.669 32.1719C17.2886 32.1719 18.0571 33.5337 20.341 33.4825C22.6923 33.4457 24.1727 31.4318 25.5857 29.3719C27.2777 27.0321 27.9572 24.7277 27.9842 24.6094C27.9289 24.591 23.4177 22.9123 23.3732 17.8343Z" fill="white"/>
<path d="M19.0588 5.37513C20.2372 3.93834 21.0434 1.98363 20.8196 0C19.1141 0.0736139 16.9812 1.15022 15.753 2.55545C14.6663 3.79374 13.6955 5.82338 13.9463 7.73208C15.8622 7.87142 17.8292 6.78956 19.0588 5.37513Z" fill="white"/>
<path d="M55.0804 33.2419H52.0186L50.3414 28.1033H44.5116L42.9139 33.2419H39.933L45.7088 15.748H49.2763L55.0804 33.2419ZM49.8358 25.9475L48.319 21.3795C48.1586 20.9128 47.8579 19.8139 47.4144 18.084H47.3604C47.1838 18.828 46.8993 19.9269 46.5083 21.3795L45.0185 25.9475H49.8358Z" fill="white"/>
<path d="M69.9332 26.7789C69.9332 28.9242 69.3386 30.62 68.1495 31.8648C67.0844 32.973 65.7617 33.5264 64.183 33.5264C62.4788 33.5264 61.2546 32.9296 60.509 31.736H60.4551V38.381H57.5806V24.7795C57.5806 23.4308 57.5442 22.0466 57.4741 20.6269H60.0021L60.1625 22.6263H60.2164C61.175 21.1198 62.6298 20.3679 64.582 20.3679C66.1082 20.3679 67.3823 20.9555 68.4016 22.132C69.4236 23.3098 69.9332 24.8584 69.9332 26.7789ZM67.0048 26.8814C67.0048 25.6537 66.7217 24.6415 66.1527 23.8449C65.5312 23.0141 64.6966 22.5987 63.6504 22.5987C62.9412 22.5987 62.2968 22.83 61.7211 23.2862C61.144 23.7463 60.7665 24.347 60.5899 25.091C60.5009 25.4381 60.4564 25.722 60.4564 25.9455V28.0487C60.4564 28.9663 60.7449 29.7405 61.322 30.3728C61.899 31.0051 62.6487 31.3206 63.5709 31.3206C64.6535 31.3206 65.4961 30.9131 66.0988 30.1007C66.7028 29.287 67.0048 28.2144 67.0048 26.8814Z" fill="white"/>
<path d="M84.8161 26.7789C84.8161 28.9242 84.2216 30.62 83.0311 31.8648C81.9673 32.973 80.6447 33.5264 79.0659 33.5264C77.3617 33.5264 76.1375 32.9296 75.3933 31.736H75.3394V38.381H72.4649V24.7795C72.4649 23.4308 72.4285 22.0466 72.3584 20.6269H74.8863L75.0468 22.6263H75.1007C76.058 21.1198 77.5127 20.3679 79.4663 20.3679C80.9912 20.3679 82.2653 20.9555 83.2872 22.132C84.3052 23.3098 84.8161 24.8584 84.8161 26.7789ZM81.8878 26.8814C81.8878 25.6537 81.6033 24.6415 81.0343 23.8449C80.4128 23.0141 79.5809 22.5987 78.5333 22.5987C77.8228 22.5987 77.1797 22.83 76.6027 23.2862C76.0256 23.7463 75.6494 24.347 75.4728 25.091C75.3852 25.4381 75.3394 25.722 75.3394 25.9455V28.0487C75.3394 28.9663 75.6279 29.7405 76.2022 30.3728C76.7793 31.0038 77.5289 31.3206 78.4538 31.3206C79.5364 31.3206 80.3791 30.9131 80.9817 30.1007C81.5858 29.287 81.8878 28.2144 81.8878 26.8814Z" fill="white"/>
<path d="M101.454 28.3355C101.454 29.8236 100.924 31.0343 99.8606 31.9689C98.6916 32.9903 97.0643 33.5003 94.9732 33.5003C93.0425 33.5003 91.4947 33.1375 90.3231 32.4106L90.9892 30.0746C92.2511 30.8187 93.6357 31.192 95.1444 31.192C96.2271 31.192 97.0697 30.9528 97.6751 30.4769C98.2777 30.001 98.5784 29.3622 98.5784 28.5656C98.5784 27.8557 98.3303 27.2576 97.8328 26.7725C97.338 26.2875 96.5115 25.8366 95.3574 25.4199C92.216 24.2776 90.6467 22.6042 90.6467 20.4036C90.6467 18.9655 91.1968 17.7864 92.2983 16.8688C93.3958 15.95 94.8599 15.4912 96.6909 15.4912C98.3236 15.4912 99.6799 15.7686 100.763 16.322L100.044 18.6067C99.0327 18.0703 97.8894 17.8022 96.61 17.8022C95.5988 17.8022 94.8087 18.0454 94.2425 18.5291C93.7638 18.9616 93.5238 19.4887 93.5238 20.1131C93.5238 20.8046 93.7975 21.3764 94.3476 21.8259C94.8262 22.2413 95.6959 22.6909 96.9578 23.176C98.5015 23.782 99.6354 24.4905 100.365 25.3029C101.092 26.1126 101.454 27.1261 101.454 28.3355Z" fill="white"/>
<path d="M110.956 22.7302H107.787V28.8546C107.787 30.4123 108.345 31.1905 109.464 31.1905C109.978 31.1905 110.404 31.1471 110.741 31.0604L110.821 33.1886C110.254 33.395 109.509 33.4988 108.585 33.4988C107.45 33.4988 106.563 33.161 105.923 32.4867C105.285 31.811 104.964 30.6779 104.964 29.086V22.7276H103.076V20.6243H104.964V18.3147L107.787 17.4839V20.6243H110.956V22.7302Z" fill="white"/>
<path d="M125.251 26.8298C125.251 28.7688 124.682 30.3607 123.547 31.6055C122.357 32.8872 120.777 33.5261 118.807 33.5261C116.909 33.5261 115.397 32.9122 114.27 31.6844C113.143 30.4566 112.579 28.9068 112.579 27.0388C112.579 25.0841 113.159 23.483 114.323 22.2382C115.483 20.992 117.05 20.3689 119.02 20.3689C120.918 20.3689 122.446 20.9828 123.598 22.2119C124.701 23.4042 125.251 24.9435 125.251 26.8298ZM122.269 26.9205C122.269 25.7572 122.014 24.7594 121.498 23.9273C120.895 22.9204 120.034 22.4183 118.917 22.4183C117.762 22.4183 116.884 22.9217 116.282 23.9273C115.765 24.7608 115.51 25.7743 115.51 26.9731C115.51 28.1365 115.765 29.1342 116.282 29.965C116.903 30.9719 117.771 31.4741 118.892 31.4741C119.989 31.4741 120.851 30.9614 121.472 29.9387C122.002 29.0908 122.269 28.0826 122.269 26.9205Z" fill="white"/>
<path d="M134.593 23.0916C134.309 23.0404 134.005 23.0141 133.687 23.0141C132.676 23.0141 131.894 23.3861 131.344 24.1314C130.865 24.7887 130.625 25.6195 130.625 26.6225V33.2411H127.752L127.779 24.5994C127.779 23.1455 127.743 21.8218 127.671 20.6282H130.175L130.28 23.0417H130.36C130.663 22.2122 131.142 21.5444 131.797 21.0436C132.437 20.5927 133.129 20.3679 133.875 20.3679C134.14 20.3679 134.38 20.3863 134.593 20.4192V23.0916Z" fill="white"/>
<path d="M147.45 26.3377C147.45 26.8398 147.416 27.2631 147.345 27.6088H138.722C138.755 28.855 139.172 29.8081 139.973 30.4653C140.699 31.0529 141.639 31.3474 142.793 31.3474C144.07 31.3474 145.235 31.1489 146.282 30.7506L146.733 32.6961C145.509 33.2166 144.063 33.4756 142.395 33.4756C140.389 33.4756 138.815 32.8998 137.669 31.7496C136.525 30.5994 135.952 29.0548 135.952 27.1172C135.952 25.2151 136.485 23.6311 137.551 22.3678C138.668 21.0191 140.176 20.3447 142.075 20.3447C143.939 20.3447 145.351 21.0191 146.309 22.3678C147.068 23.4391 147.45 24.7642 147.45 26.3377ZM144.709 25.6107C144.728 24.78 144.541 24.0622 144.151 23.4562C143.653 22.6767 142.889 22.2876 141.86 22.2876C140.921 22.2876 140.156 22.6675 139.572 23.4299C139.094 24.0359 138.809 24.7629 138.722 25.6094H144.709V25.6107Z" fill="white"/>
<path d="M48.8851 4.98429C48.8851 6.53149 48.4092 7.69617 47.4587 8.47832C46.5783 9.19999 45.3271 9.56149 43.7065 9.56149C42.903 9.56149 42.2153 9.52731 41.6396 9.45896V1.00519C42.3906 0.886884 43.1996 0.826416 44.0732 0.826416C45.617 0.826416 46.7805 1.15373 47.5652 1.80837C48.4442 2.54845 48.8851 3.60665 48.8851 4.98429ZM47.3953 5.02241C47.3953 4.01942 47.1229 3.25042 46.5783 2.71409C46.0336 2.17907 45.2381 1.91091 44.1905 1.91091C43.7456 1.91091 43.3667 1.93983 43.0526 2.00029V8.42705C43.2265 8.45334 43.5447 8.46517 44.0072 8.46517C45.0884 8.46517 45.923 8.17203 46.5108 7.58575C47.0987 6.99947 47.3953 6.14502 47.3953 5.02241Z" fill="white"/>
<path d="M56.7848 6.33588C56.7848 7.28892 56.5057 8.06975 55.9475 8.68232C55.3624 9.31198 54.5871 9.62616 53.6191 9.62616C52.6861 9.62616 51.9432 9.32513 51.3891 8.72044C50.8363 8.11707 50.5599 7.35596 50.5599 6.43841C50.5599 5.4788 50.8444 4.6914 51.4161 4.08014C51.9877 3.46888 52.7562 3.1626 53.7243 3.1626C54.6572 3.1626 55.4069 3.46363 55.9745 4.067C56.5138 4.65328 56.7848 5.41045 56.7848 6.33588ZM55.3192 6.38057C55.3192 5.80875 55.1925 5.31843 54.9404 4.90961C54.6438 4.41535 54.2218 4.16821 53.673 4.16821C53.1054 4.16821 52.674 4.41535 52.3774 4.90961C52.1239 5.31843 51.9985 5.81664 51.9985 6.40555C51.9985 6.97737 52.1252 7.46769 52.3774 7.87651C52.6834 8.37078 53.1095 8.61791 53.6595 8.61791C54.1988 8.61791 54.6222 8.36683 54.9269 7.86337C55.1884 7.44666 55.3192 6.9524 55.3192 6.38057Z" fill="white"/>
<path d="M67.3751 3.28784L65.3864 9.48455H64.0921L63.2684 6.7937C63.0594 6.12198 62.8895 5.45419 62.7574 4.79167H62.7318C62.6091 5.4726 62.4392 6.13906 62.2208 6.7937L61.3458 9.48455H60.0366L58.1666 3.28784H59.6187L60.3373 6.23371C60.5112 6.93041 60.6541 7.59425 60.7687 8.2226H60.7943C60.8995 7.70467 61.0734 7.04478 61.3188 6.24686L62.2208 3.28916H63.3722L64.2364 6.18376C64.4454 6.88966 64.6152 7.56928 64.746 8.22391H64.7851C64.8809 7.58637 65.0251 6.90675 65.2166 6.18376L65.9878 3.28916H67.3751V3.28784Z" fill="white"/>
<path d="M74.6997 9.4853H73.2867V5.93606C73.2867 4.84237 72.8607 4.29552 72.0059 4.29552C71.5866 4.29552 71.2482 4.44538 70.9853 4.7464C70.7251 5.04743 70.593 5.40236 70.593 5.80855V9.48398H69.18V5.05926C69.18 4.51505 69.1625 3.92482 69.1288 3.28596H70.3705L70.4366 4.25477H70.4757C70.6402 3.95374 70.8855 3.70529 71.2078 3.5068C71.5907 3.27544 72.0194 3.15845 72.4886 3.15845C73.0818 3.15845 73.5753 3.34511 73.9676 3.71975C74.4557 4.17853 74.6997 4.8634 74.6997 5.77306V9.4853Z" fill="white"/>
<path d="M78.5975 9.4856H77.1859V0.445557H78.5975V9.4856Z" fill="white"/>
<path d="M86.9175 6.33588C86.9175 7.28892 86.6384 8.06975 86.0802 8.68232C85.4951 9.31198 84.7185 9.62616 83.7518 9.62616C82.8175 9.62616 82.0746 9.32513 81.5218 8.72044C80.969 8.11707 80.6926 7.35596 80.6926 6.43841C80.6926 5.4788 80.9771 4.6914 81.5488 4.08014C82.1204 3.46888 82.8889 3.1626 83.8556 3.1626C84.7899 3.1626 85.5382 3.46363 86.1072 4.067C86.6465 4.65328 86.9175 5.41045 86.9175 6.33588ZM85.4506 6.38057C85.4506 5.80875 85.3238 5.31843 85.0717 4.90961C84.7764 4.41535 84.3531 4.16821 83.8057 4.16821C83.2368 4.16821 82.8053 4.41535 82.5101 4.90961C82.2566 5.31843 82.1312 5.81664 82.1312 6.40555C82.1312 6.97737 82.2579 7.46769 82.5101 7.87651C82.8161 8.37078 83.2422 8.61791 83.7922 8.61791C84.3315 8.61791 84.7535 8.36683 85.0582 7.86337C85.3211 7.44666 85.4506 6.9524 85.4506 6.38057Z" fill="white"/>
<path d="M93.7543 9.4855H92.4856L92.3804 8.77171H92.3413C91.9072 9.3409 91.2884 9.62616 90.4848 9.62616C89.8849 9.62616 89.3995 9.43818 89.0341 9.06485C88.7025 8.7257 88.5366 8.30374 88.5366 7.8029C88.5366 7.04573 88.8602 6.46865 89.5114 6.06903C90.1612 5.66941 91.0754 5.47355 92.2524 5.48275V5.36707C92.2524 4.55074 91.8128 4.14324 90.9324 4.14324C90.3055 4.14324 89.7527 4.29704 89.2755 4.60201L88.9883 3.69761C89.5788 3.34137 90.3082 3.1626 91.1684 3.1626C92.8294 3.1626 93.6626 4.01704 93.6626 5.72594V8.00797C93.6626 8.62711 93.6936 9.12006 93.7543 9.4855ZM92.2874 7.35596V6.40029C90.7289 6.374 89.9496 6.79071 89.9496 7.6491C89.9496 7.97247 90.0386 8.21435 90.2206 8.37604C90.4026 8.53772 90.6345 8.61791 90.9109 8.61791C91.221 8.61791 91.5108 8.52195 91.7751 8.33134C92.0407 8.13942 92.2038 7.89623 92.2645 7.59783C92.2793 7.53079 92.2874 7.44929 92.2874 7.35596Z" fill="white"/>
<path d="M101.781 9.4856H100.528L100.461 8.4905H100.422C100.022 9.24767 99.3398 9.62626 98.3812 9.62626C97.6154 9.62626 96.9776 9.33312 96.4721 8.74683C95.9665 8.16055 95.7144 7.39944 95.7144 6.4648C95.7144 5.46182 95.988 4.64943 96.5381 4.02897C97.0707 3.45058 97.7232 3.16138 98.4998 3.16138C99.3532 3.16138 99.9505 3.44138 100.29 4.00268H100.317V0.445557H101.732V7.81614C101.732 8.41952 101.748 8.97556 101.781 9.4856ZM100.317 6.87231V5.83909C100.317 5.66031 100.304 5.51571 100.278 5.40529C100.199 5.07403 100.027 4.79535 99.7672 4.57056C99.5042 4.34578 99.1874 4.23273 98.822 4.23273C98.2949 4.23273 97.8823 4.43648 97.579 4.8453C97.2783 5.25412 97.126 5.77599 97.126 6.41354C97.126 7.02611 97.2702 7.523 97.5601 7.90553C97.8661 8.31304 98.2787 8.51679 98.7951 8.51679C99.2589 8.51679 99.6296 8.34722 99.9114 8.00675C100.184 7.69258 100.317 7.31399 100.317 6.87231Z" fill="white"/>
<path d="M113.867 6.33588C113.867 7.28892 113.588 8.06975 113.03 8.68232C112.445 9.31198 111.671 9.62616 110.701 9.62616C109.77 9.62616 109.027 9.32513 108.472 8.72044C107.919 8.11707 107.642 7.35596 107.642 6.43841C107.642 5.4788 107.927 4.6914 108.498 4.08014C109.07 3.46888 109.839 3.1626 110.808 3.1626C111.74 3.1626 112.491 3.46363 113.057 4.067C113.596 4.65328 113.867 5.41045 113.867 6.33588ZM112.403 6.38057C112.403 5.80875 112.276 5.31843 112.024 4.90961C111.726 4.41535 111.306 4.16821 110.755 4.16821C110.189 4.16821 109.758 4.41535 109.46 4.90961C109.206 5.31843 109.081 5.81664 109.081 6.40555C109.081 6.97737 109.208 7.46769 109.46 7.87651C109.766 8.37078 110.192 8.61791 110.742 8.61791C111.281 8.61791 111.706 8.36683 112.011 7.86337C112.271 7.44666 112.403 6.9524 112.403 6.38057Z" fill="white"/>
<path d="M121.463 9.4853H120.052V5.93606C120.052 4.84237 119.626 4.29552 118.769 4.29552C118.35 4.29552 118.012 4.44538 117.75 4.7464C117.489 5.04743 117.358 5.40236 117.358 5.80855V9.48398H115.944V5.05926C115.944 4.51505 115.927 3.92482 115.894 3.28596H117.134L117.2 4.25477H117.239C117.405 3.95374 117.65 3.70529 117.971 3.5068C118.356 3.27544 118.783 3.15845 119.253 3.15845C119.845 3.15845 120.339 3.34511 120.731 3.71975C121.221 4.17853 121.463 4.8634 121.463 5.77306V9.4853Z" fill="white"/>
<path d="M130.972 4.32078H129.416V7.33106C129.416 8.09612 129.693 8.47864 130.24 8.47864C130.493 8.47864 130.704 8.45761 130.87 8.41423L130.906 9.45929C130.627 9.56182 130.26 9.61309 129.809 9.61309C129.25 9.61309 128.816 9.44746 128.502 9.11619C128.187 8.78493 128.03 8.22757 128.03 7.44542V4.32078H127.101V3.28887H128.03V2.15311L129.415 1.74561V3.28755H130.971V4.32078H130.972Z" fill="white"/>
<path d="M138.453 9.4856H137.039V5.96265C137.039 4.85187 136.612 4.29582 135.759 4.29582C135.104 4.29582 134.656 4.61789 134.411 5.26201C134.369 5.3974 134.345 5.56304 134.345 5.75759V9.48429H132.933V0.445557H134.345V4.18015H134.372C134.817 3.50053 135.454 3.16138 136.281 3.16138C136.866 3.16138 137.35 3.34805 137.734 3.72269C138.213 4.18935 138.453 4.88342 138.453 5.80097V9.4856Z" fill="white"/>
<path d="M146.171 6.09436C146.171 6.34149 146.152 6.54919 146.119 6.71877H141.881C141.9 7.33134 142.102 7.798 142.495 8.12137C142.853 8.41057 143.316 8.55517 143.882 8.55517C144.509 8.55517 145.081 8.45789 145.596 8.26203L145.817 9.21901C145.214 9.47403 144.505 9.60154 143.684 9.60154C142.7 9.60154 141.924 9.31891 141.364 8.75366C140.8 8.18842 140.521 7.42993 140.521 6.47821C140.521 5.54357 140.781 4.76537 141.306 4.14491C141.853 3.48238 142.593 3.15112 143.527 3.15112C144.442 3.15112 145.136 3.48238 145.605 4.14491C145.984 4.67072 146.171 5.32142 146.171 6.09436ZM144.823 5.73812C144.834 5.3293 144.741 4.97701 144.549 4.67993C144.304 4.2974 143.931 4.10547 143.425 4.10547C142.964 4.10547 142.588 4.29214 142.301 4.66678C142.066 4.96518 141.927 5.32142 141.881 5.73812H144.823Z" fill="white"/>
</svg>
