<svg width="2560" height="704" viewBox="0 0 2560 704" fill="none" xmlns="http://www.w3.org/2000/svg">
<g opacity="0.5">
<path d="M559.718 133.566C1207.93 83.8531 1757.06 299.719 2750.03 0L2557.85 403.407L2402.18 622.72L-48.0858 606.773C-78.4484 562.636 -128.74 345.927 -93.63 332.453C-49.7422 315.61 -290.711 198.786 559.718 133.566Z" fill="url(#paint0_linear_25_35913)" fill-opacity="0.1"/>
<path d="M1726.81 265.852C2400.51 245.22 2558.91 198.954 2704.65 162.136L2678.98 484.529L2523.3 704L73.045 688.042C42.6824 643.873 -643.761 235.699 345.48 192.618C1045.42 162.136 1163.4 283.106 1726.81 265.852Z" fill="url(#paint1_linear_25_35913)" fill-opacity="0.1"/>
<path d="M25.6346 520.138C69.5418 503.292 -492.139 278.737 348.725 239.669C669.627 224.759 941.662 321.74 1400.84 377.576C1904.21 438.786 2620.3 306.428 2868 432.236L2679.95 449.082L2524.2 668.44L72.8555 669.423C42.4794 625.277 -9.49112 533.615 25.6346 520.138Z" fill="url(#paint2_linear_25_35913)" fill-opacity="0.2"/>
</g>
<defs>
<linearGradient id="paint0_linear_25_35913" x1="1225.41" y1="133.566" x2="1225.41" y2="622.72" gradientUnits="userSpaceOnUse">
<stop stop-color="#FF42A8"/>
<stop offset="1" stop-color="#7759B7" stop-opacity="0"/>
</linearGradient>
<linearGradient id="paint1_linear_25_35913" x1="1346.54" y1="214.493" x2="1346.54" y2="704" gradientUnits="userSpaceOnUse">
<stop stop-color="#FF42A8"/>
<stop offset="1" stop-color="#7759B7" stop-opacity="0"/>
</linearGradient>
<linearGradient id="paint2_linear_25_35913" x1="1739.19" y1="173.834" x2="1682.52" y2="589.304" gradientUnits="userSpaceOnUse">
<stop stop-color="#FF42A8"/>
<stop offset="1" stop-color="#7759B7" stop-opacity="0"/>
</linearGradient>
</defs>
</svg>
