<svg width="149" height="35" viewBox="0 0 149 35" fill="none" xmlns="http://www.w3.org/2000/svg">
<path d="M48.1353 5.13997C48.1353 6.18614 47.8144 7.02402 47.1824 7.6489C46.4558 8.38968 45.5094 8.76242 44.3496 8.76242C43.2412 8.76242 42.2948 8.38341 41.5185 7.63637C40.7405 6.87837 40.3523 5.94809 40.3523 4.83458C40.3523 3.72106 40.7405 2.79079 41.5185 2.03905C42.2948 1.28574 43.2412 0.906738 44.3496 0.906738C44.9014 0.906738 45.4276 1.01793 45.9297 1.22466C46.4301 1.43296 46.8376 1.71486 47.1327 2.06254L46.4622 2.72344C45.9473 2.12988 45.2463 1.83702 44.3496 1.83702C43.5412 1.83702 42.8402 2.11265 42.2451 2.66863C41.6564 3.22617 41.3613 3.94815 41.3613 4.83458C41.3613 5.721 41.6564 6.44925 42.2451 7.00679C42.8402 7.5565 43.5412 7.8384 44.3496 7.8384C45.2078 7.8384 45.9297 7.5565 46.4991 7.00053C46.8745 6.63249 47.0878 6.12506 47.1439 5.47669H44.3496V4.57147H48.0775C48.1224 4.76723 48.1353 4.95673 48.1353 5.13997Z" fill="#3F3E56" stroke="#3F3E56" stroke-width="0.154203" stroke-miterlimit="10"/>
<path d="M54.0489 2.00204H50.5472V4.38255H53.704V5.28776H50.5472V7.66827H54.0489V8.59072H49.5559V1.07959H54.0489V2.00204Z" fill="#3F3E56" stroke="#3F3E56" stroke-width="0.154203" stroke-miterlimit="10"/>
<path d="M58.224 8.59072H57.2327V2.00204H55.0848V1.07959H60.3735V2.00204H58.224V8.59072Z" fill="#3F3E56" stroke="#3F3E56" stroke-width="0.154203" stroke-miterlimit="10"/>
<path d="M64.2034 8.59072V1.07959H65.1931V8.59072H64.2034Z" fill="#3F3E56" stroke="#3F3E56" stroke-width="0.154203" stroke-miterlimit="10"/>
<path d="M69.5769 8.59072H68.5936V2.00204H66.4377V1.07959H71.7328V2.00204H69.5769V8.59072Z" fill="#3F3E56" stroke="#3F3E56" stroke-width="0.154203" stroke-miterlimit="10"/>
<path d="M81.7458 7.62384C80.987 8.38341 80.047 8.76242 78.9258 8.76242C77.7981 8.76242 76.8581 8.38341 76.0994 7.62384C75.3423 6.86584 74.9653 5.93556 74.9653 4.83458C74.9653 3.73359 75.3423 2.80331 76.0994 2.04531C76.8581 1.28574 77.7981 0.906738 78.9258 0.906738C80.0406 0.906738 80.9806 1.28574 81.7393 2.05157C82.5029 2.81584 82.8798 3.73986 82.8798 4.83458C82.8798 5.93556 82.5029 6.86584 81.7458 7.62384ZM76.8325 6.99426C77.4035 7.5565 78.0981 7.8384 78.9258 7.8384C79.7471 7.8384 80.4481 7.5565 81.0127 6.99426C81.5821 6.43202 81.8709 5.71004 81.8709 4.83458C81.8709 3.95911 81.5821 3.23713 81.0127 2.67489C80.4481 2.11265 79.7471 1.83075 78.9258 1.83075C78.0981 1.83075 77.4035 2.11265 76.8325 2.67489C76.263 3.23713 75.9743 3.95911 75.9743 4.83458C75.9743 5.71004 76.263 6.43202 76.8325 6.99426Z" fill="#3F3E56" stroke="#3F3E56" stroke-width="0.154203" stroke-miterlimit="10"/>
<path d="M84.2722 8.59072V1.07959H85.4753L89.216 6.92123H89.2593L89.216 5.47727V1.07959H90.2057V8.59072H89.1727L85.2555 2.46091H85.2122L85.2555 3.91114V8.59072H84.2722Z" fill="#3F3E56" stroke="#3F3E56" stroke-width="0.154203" stroke-miterlimit="10"/>
<path d="M74.723 19.559C71.709 19.559 69.2467 21.7986 69.2467 24.8885C69.2467 27.9534 71.709 30.2165 74.723 30.2165C77.7435 30.2165 80.2057 27.9534 80.2057 24.8885C80.2057 21.7986 77.7435 19.559 74.723 19.559ZM74.723 28.1179C73.0692 28.1179 71.6464 26.7851 71.6464 24.8885C71.6464 22.9669 73.0692 21.6576 74.723 21.6576C76.3768 21.6576 77.806 22.9669 77.806 24.8885C77.806 26.7851 76.3768 28.1179 74.723 28.1179ZM62.7743 19.559C59.7538 19.559 57.298 21.7986 57.298 24.8885C57.298 27.9534 59.7538 30.2165 62.7743 30.2165C65.7931 30.2165 68.2506 27.9534 68.2506 24.8885C68.2506 21.7986 65.7931 19.559 62.7743 19.559ZM62.7743 28.1179C61.1189 28.1179 59.6912 26.7851 59.6912 24.8885C59.6912 22.9669 61.1189 21.6576 62.7743 21.6576C64.4281 21.6576 65.8509 22.9669 65.8509 24.8885C65.8509 26.7851 64.4281 28.1179 62.7743 28.1179ZM48.5558 21.1925V23.4571H54.0946C53.9326 24.7225 53.4995 25.6528 52.8354 26.3012C52.027 27.0842 50.7678 27.9534 48.5558 27.9534C45.1471 27.9534 42.4779 25.2675 42.4779 21.9395C42.4779 18.6115 45.1471 15.9256 48.5558 15.9256C50.3988 15.9256 51.7399 16.6288 52.7296 17.5403L54.3641 15.9444C52.9798 14.6539 51.1383 13.6625 48.5558 13.6625C43.8815 13.6625 39.9531 17.3758 39.9531 21.9395C39.9531 26.5032 43.8815 30.2165 48.5558 30.2165C51.0822 30.2165 52.9798 29.4083 54.4716 27.8923C56.0003 26.3998 56.4767 24.3012 56.4767 22.6067C56.4767 22.0805 56.4318 21.5965 56.3516 21.1925H48.5558ZM106.697 22.9481C106.246 21.7563 104.856 19.559 102.023 19.559C99.2156 19.559 96.8785 21.7187 96.8785 24.8885C96.8785 27.8735 99.1915 30.2165 102.292 30.2165C104.799 30.2165 106.246 28.724 106.841 27.8548L104.981 26.6441C104.36 27.5306 103.515 28.1179 102.292 28.1179C101.078 28.1179 100.207 27.5744 99.6487 26.5032L106.949 23.5542L106.697 22.9481ZM99.2541 24.7225C99.1915 22.6677 100.889 21.6153 102.105 21.6153C103.057 21.6153 103.866 22.0805 104.135 22.7461L99.2541 24.7225ZM93.3206 29.8923H95.7203V14.231H93.3206V29.8923ZM89.3907 20.7461H89.3104C88.7715 20.1228 87.7433 19.559 86.4408 19.559C83.7074 19.559 81.2083 21.9019 81.2083 24.9057C81.2083 27.8923 83.7074 30.2165 86.4408 30.2165C87.7433 30.2165 88.7715 29.648 89.3104 29.0059H89.3907V29.7701C89.3907 31.8077 88.2758 32.9024 86.4777 32.9024C85.0115 32.9024 84.102 31.8687 83.7267 30.9995L81.6398 31.8499C82.2413 33.2626 83.8341 35.001 86.4777 35.001C89.2912 35.001 91.6652 33.3847 91.6652 29.4522V19.8832H89.3907V20.7461ZM86.6461 28.1179C84.9923 28.1179 83.608 26.7663 83.608 24.9057C83.608 23.028 84.9923 21.6576 86.6461 21.6576C88.2758 21.6576 89.5607 23.028 89.5607 24.9057C89.5607 26.7663 88.2758 28.1179 86.6461 28.1179ZM117.932 14.231H112.193V29.8923H114.586V23.9582H117.932C120.59 23.9582 123.196 22.0805 123.196 19.0939C123.196 16.1088 120.583 14.231 117.932 14.231ZM117.994 21.7798H114.586V16.4095H117.994C119.781 16.4095 120.802 17.8582 120.802 19.0939C120.802 20.306 119.781 21.7798 117.994 21.7798ZM132.789 19.5292C131.06 19.5292 129.261 20.2747 128.522 21.927L130.646 22.7962C131.103 21.927 131.943 21.6451 132.832 21.6451C134.074 21.6451 135.333 22.3733 135.352 23.6591V23.8236C134.919 23.5792 133.992 23.2175 132.851 23.2175C130.564 23.2175 128.233 24.4469 128.233 26.7412C128.233 28.8398 130.107 30.1914 132.213 30.1914C133.823 30.1914 134.712 29.482 135.27 28.6566H135.352V29.8672H137.664V23.8596C137.664 21.0828 135.54 19.5292 132.789 19.5292ZM132.5 28.1116C131.717 28.1116 130.627 27.7326 130.627 26.7851C130.627 25.5729 131.987 25.1078 133.164 25.1078C134.218 25.1078 134.712 25.3349 135.352 25.634C135.164 27.0842 133.886 28.1116 132.5 28.1116ZM146.085 19.8722L143.334 26.6614H143.252L140.408 19.8722H137.827L142.1 29.3598L139.662 34.6392H142.163L148.748 19.8722H146.085ZM124.512 29.8923H126.912V14.231H124.512V29.8923Z" fill="#3F3E56"/>
<path d="M0.677996 1.75067C0.301039 2.13594 0.0828857 2.73576 0.0828857 3.51256V31.2204C0.0828857 31.9972 0.301039 32.5971 0.677996 32.9823L0.771033 33.0669L16.6738 17.5466V17.1801L0.771033 1.65984L0.677996 1.75067Z" fill="url(#paint0_linear_1_4919)"/>
<path d="M21.9716 22.7231L16.6765 17.5471V17.1806L21.978 12.0046L22.0967 12.0719L28.375 15.5597C30.1668 16.5495 30.1668 18.1783 28.375 19.1743L22.0967 22.6558L21.9716 22.7231Z" fill="url(#paint1_linear_1_4919)"/>
<path d="M22.0942 22.6559L16.674 17.364L0.678223 32.9829C1.27333 33.5937 2.2438 33.6673 3.3474 33.0565L22.0942 22.6559Z" fill="url(#paint2_linear_1_4919)"/>
<path d="M22.0942 12.0713L3.3474 1.67072C2.2438 1.0662 1.27333 1.1398 0.678223 1.75059L16.674 17.3633L22.0942 12.0713Z" fill="url(#paint3_linear_1_4919)"/>
<defs>
<linearGradient id="paint0_linear_1_4919" x1="15.2618" y1="31.509" x2="-5.7588" y2="9.979" gradientUnits="userSpaceOnUse">
<stop stop-color="#00A0FF"/>
<stop offset="0.0066" stop-color="#00A1FF"/>
<stop offset="0.2601" stop-color="#00BEFF"/>
<stop offset="0.5122" stop-color="#00D2FF"/>
<stop offset="0.7604" stop-color="#00DFFF"/>
<stop offset="1" stop-color="#00E3FF"/>
</linearGradient>
<linearGradient id="paint1_linear_1_4919" x1="30.7082" y1="17.3621" x2="-0.342702" y2="17.3621" gradientUnits="userSpaceOnUse">
<stop stop-color="#FFE000"/>
<stop offset="0.4087" stop-color="#FFBD00"/>
<stop offset="0.7754" stop-color="#FFA500"/>
<stop offset="1" stop-color="#FF9C00"/>
</linearGradient>
<linearGradient id="paint2_linear_1_4919" x1="19.1469" y1="14.4872" x2="-9.35881" y2="-14.7092" gradientUnits="userSpaceOnUse">
<stop stop-color="#FF3A44"/>
<stop offset="1" stop-color="#C31162"/>
</linearGradient>
<linearGradient id="paint3_linear_1_4919" x1="-3.34826" y1="42.2005" x2="9.38081" y2="29.1631" gradientUnits="userSpaceOnUse">
<stop stop-color="#32A071"/>
<stop offset="0.0685" stop-color="#2DA771"/>
<stop offset="0.4762" stop-color="#15CF74"/>
<stop offset="0.8009" stop-color="#06E775"/>
<stop offset="1" stop-color="#00F076"/>
</linearGradient>
</defs>
</svg>
