<svg width="149" height="35" viewBox="0 0 149 35" fill="none" xmlns="http://www.w3.org/2000/svg">
<path d="M48.1353 5.13875C48.1353 6.18492 47.8144 7.0228 47.1824 7.64768C46.4558 8.38846 45.5094 8.7612 44.3496 8.7612C43.2412 8.7612 42.2948 8.38219 41.5185 7.63515C40.7405 6.87715 40.3523 5.94687 40.3523 4.83336C40.3523 3.71984 40.7405 2.78957 41.5185 2.03783C42.2948 1.28452 43.2412 0.905518 44.3496 0.905518C44.9014 0.905518 45.4276 1.01671 45.9297 1.22344C46.4301 1.43174 46.8376 1.71364 47.1327 2.06132L46.4622 2.72222C45.9473 2.12866 45.2463 1.8358 44.3496 1.8358C43.5412 1.8358 42.8402 2.11143 42.2451 2.66741C41.6564 3.22495 41.3613 3.94693 41.3613 4.83336C41.3613 5.71978 41.6564 6.44803 42.2451 7.00557C42.8402 7.55528 43.5412 7.83718 44.3496 7.83718C45.2078 7.83718 45.9297 7.55528 46.4991 6.99931C46.8745 6.63127 47.0878 6.12384 47.1439 5.47547H44.3496V4.57025H48.0775C48.1224 4.76601 48.1353 4.95551 48.1353 5.13875Z" fill="white" stroke="white" stroke-width="0.154203" stroke-miterlimit="10"/>
<path d="M54.0489 2.00106H50.5472V4.38157H53.704V5.28679H50.5472V7.6673H54.0489V8.58974H49.5559V1.07861H54.0489V2.00106Z" fill="white" stroke="white" stroke-width="0.154203" stroke-miterlimit="10"/>
<path d="M58.224 8.58926H57.2327V2.00057H55.0848V1.07812H60.3735V2.00057H58.224V8.58926Z" fill="white" stroke="white" stroke-width="0.154203" stroke-miterlimit="10"/>
<path d="M64.2034 8.58974V1.07861H65.1931V8.58974H64.2034Z" fill="white" stroke="white" stroke-width="0.154203" stroke-miterlimit="10"/>
<path d="M69.5769 8.58974H68.5936V2.00106H66.4377V1.07861H71.7328V2.00106H69.5769V8.58974Z" fill="white" stroke="white" stroke-width="0.154203" stroke-miterlimit="10"/>
<path d="M81.7458 7.62262C80.987 8.38219 80.047 8.7612 78.9258 8.7612C77.7981 8.7612 76.8581 8.38219 76.0994 7.62262C75.3423 6.86462 74.9653 5.93434 74.9653 4.83336C74.9653 3.73237 75.3423 2.80209 76.0994 2.04409C76.8581 1.28452 77.7981 0.905518 78.9258 0.905518C80.0406 0.905518 80.9806 1.28452 81.7393 2.05035C82.5029 2.81462 82.8798 3.73864 82.8798 4.83336C82.8798 5.93434 82.5029 6.86462 81.7458 7.62262ZM76.8325 6.99304C77.4035 7.55528 78.0981 7.83718 78.9258 7.83718C79.7471 7.83718 80.4481 7.55528 81.0127 6.99304C81.5821 6.4308 81.8709 5.70882 81.8709 4.83336C81.8709 3.95789 81.5821 3.23591 81.0127 2.67367C80.4481 2.11143 79.7471 1.82953 78.9258 1.82953C78.0981 1.82953 77.4035 2.11143 76.8325 2.67367C76.263 3.23591 75.9743 3.95789 75.9743 4.83336C75.9743 5.70882 76.263 6.4308 76.8325 6.99304Z" fill="white" stroke="white" stroke-width="0.154203" stroke-miterlimit="10"/>
<path d="M84.2723 8.58926V1.07812H85.4753L89.216 6.91977H89.2593L89.216 5.4758V1.07812H90.2058V8.58926H89.1727L85.2556 2.45945H85.2123L85.2556 3.90968V8.58926H84.2723Z" fill="white" stroke="white" stroke-width="0.154203" stroke-miterlimit="10"/>
<path d="M74.723 19.5578C71.709 19.5578 69.2467 21.7973 69.2467 24.8873C69.2467 27.9522 71.709 30.2152 74.723 30.2152C77.7435 30.2152 80.2057 27.9522 80.2057 24.8873C80.2057 21.7973 77.7435 19.5578 74.723 19.5578ZM74.723 28.1166C73.0692 28.1166 71.6464 26.7839 71.6464 24.8873C71.6464 22.9657 73.0692 21.6564 74.723 21.6564C76.3768 21.6564 77.806 22.9657 77.806 24.8873C77.806 26.7839 76.3768 28.1166 74.723 28.1166ZM62.7743 19.5578C59.7538 19.5578 57.298 21.7973 57.298 24.8873C57.298 27.9522 59.7538 30.2152 62.7743 30.2152C65.7931 30.2152 68.2506 27.9522 68.2506 24.8873C68.2506 21.7973 65.7931 19.5578 62.7743 19.5578ZM62.7743 28.1166C61.1189 28.1166 59.6912 26.7839 59.6912 24.8873C59.6912 22.9657 61.1189 21.6564 62.7743 21.6564C64.4281 21.6564 65.8509 22.9657 65.8509 24.8873C65.8509 26.7839 64.4281 28.1166 62.7743 28.1166ZM48.5558 21.1912V23.4559H54.0946C53.9326 24.7213 53.4995 25.6516 52.8354 26.2999C52.027 27.083 50.7678 27.9522 48.5558 27.9522C45.1471 27.9522 42.4779 25.2663 42.4779 21.9383C42.4779 18.6103 45.1471 15.9244 48.5558 15.9244C50.3988 15.9244 51.7399 16.6276 52.7296 17.539L54.3641 15.9432C52.9798 14.6527 51.1383 13.6613 48.5558 13.6613C43.8815 13.6613 39.9531 17.3746 39.9531 21.9383C39.9531 26.502 43.8815 30.2152 48.5558 30.2152C51.0822 30.2152 52.9798 29.4071 54.4716 27.8911C56.0003 26.3986 56.4767 24.3 56.4767 22.6055C56.4767 22.0792 56.4318 21.5953 56.3516 21.1912H48.5558ZM106.697 22.9469C106.246 21.755 104.856 19.5578 102.023 19.5578C99.2156 19.5578 96.8785 21.7175 96.8785 24.8873C96.8785 27.8723 99.1915 30.2152 102.292 30.2152C104.799 30.2152 106.246 28.7227 106.841 27.8535L104.981 26.6429C104.36 27.5293 103.515 28.1166 102.292 28.1166C101.078 28.1166 100.207 27.5732 99.6487 26.502L106.949 23.553L106.697 22.9469ZM99.2541 24.7213C99.1915 22.6665 100.889 21.6141 102.105 21.6141C103.057 21.6141 103.866 22.0792 104.135 22.7448L99.2541 24.7213ZM93.3206 29.8911H95.7203V14.2298H93.3206V29.8911ZM89.3907 20.7449H89.3104C88.7715 20.1216 87.7433 19.5578 86.4408 19.5578C83.7074 19.5578 81.2083 21.9007 81.2083 24.9045C81.2083 27.8911 83.7074 30.2152 86.4408 30.2152C87.7433 30.2152 88.7715 29.6467 89.3104 29.0046H89.3907V29.7689C89.3907 31.8064 88.2758 32.9011 86.4777 32.9011C85.0115 32.9011 84.102 31.8675 83.7267 30.9983L81.6398 31.8487C82.2413 33.2614 83.8341 34.9998 86.4777 34.9998C89.2912 34.9998 91.6652 33.3835 91.6652 29.451V19.882H89.3907V20.7449ZM86.6461 28.1166C84.9923 28.1166 83.608 26.7651 83.608 24.9045C83.608 23.0267 84.9923 21.6564 86.6461 21.6564C88.2758 21.6564 89.5607 23.0267 89.5607 24.9045C89.5607 26.7651 88.2758 28.1166 86.6461 28.1166ZM117.932 14.2298H112.193V29.8911H114.586V23.957H117.932C120.59 23.957 123.196 22.0792 123.196 19.0926C123.196 16.1076 120.583 14.2298 117.932 14.2298ZM117.994 21.7785H114.586V16.4083H117.994C119.781 16.4083 120.802 17.857 120.802 19.0926C120.802 20.3048 119.781 21.7785 117.994 21.7785ZM132.789 19.528C131.06 19.528 129.261 20.2735 128.522 21.9258L130.646 22.795C131.103 21.9258 131.943 21.6438 132.832 21.6438C134.074 21.6438 135.333 22.3721 135.352 23.6579V23.8223C134.919 23.578 133.992 23.2162 132.851 23.2162C130.564 23.2162 128.233 24.4456 128.233 26.74C128.233 28.8386 130.107 30.1902 132.213 30.1902C133.823 30.1902 134.712 29.4807 135.27 28.6554H135.352V29.866H137.664V23.8584C137.664 21.0816 135.54 19.528 132.789 19.528ZM132.5 28.1104C131.717 28.1104 130.627 27.7314 130.627 26.7839C130.627 25.5717 131.987 25.1066 133.164 25.1066C134.218 25.1066 134.712 25.3336 135.352 25.6328C135.164 27.083 133.886 28.1104 132.5 28.1104ZM146.085 19.871L143.334 26.6601H143.252L140.408 19.871H137.827L142.1 29.3586L139.662 34.638H142.163L148.748 19.871H146.085ZM124.512 29.8911H126.912V14.2298H124.512V29.8911Z" fill="white"/>
<path d="M0.677996 1.74969C0.301039 2.13496 0.0828857 2.73479 0.0828857 3.51158V31.2195C0.0828857 31.9963 0.301039 32.5961 0.677996 32.9813L0.771033 33.0659L16.6738 17.5456V17.1792L0.771033 1.65886L0.677996 1.74969Z" fill="url(#paint0_linear_1_12253)"/>
<path d="M21.9716 22.7219L16.6765 17.5459V17.1794L21.978 12.0034L22.0967 12.0707L28.375 15.5585C30.1668 16.5483 30.1668 18.177 28.375 19.1731L22.0967 22.6546L21.9716 22.7219Z" fill="url(#paint1_linear_1_12253)"/>
<path d="M22.0942 22.6549L16.674 17.363L0.678223 32.982C1.27333 33.5927 2.2438 33.6664 3.3474 33.0556L22.0942 22.6549Z" fill="url(#paint2_linear_1_12253)"/>
<path d="M22.0942 12.0701L3.3474 1.6695C2.2438 1.06498 1.27333 1.13858 0.678223 1.74937L16.674 17.3621L22.0942 12.0701Z" fill="url(#paint3_linear_1_12253)"/>
<defs>
<linearGradient id="paint0_linear_1_12253" x1="15.2618" y1="31.508" x2="-5.7588" y2="9.97802" gradientUnits="userSpaceOnUse">
<stop stop-color="#00A0FF"/>
<stop offset="0.0066" stop-color="#00A1FF"/>
<stop offset="0.2601" stop-color="#00BEFF"/>
<stop offset="0.5122" stop-color="#00D2FF"/>
<stop offset="0.7604" stop-color="#00DFFF"/>
<stop offset="1" stop-color="#00E3FF"/>
</linearGradient>
<linearGradient id="paint1_linear_1_12253" x1="30.7082" y1="17.3609" x2="-0.342702" y2="17.3609" gradientUnits="userSpaceOnUse">
<stop stop-color="#FFE000"/>
<stop offset="0.4087" stop-color="#FFBD00"/>
<stop offset="0.7754" stop-color="#FFA500"/>
<stop offset="1" stop-color="#FF9C00"/>
</linearGradient>
<linearGradient id="paint2_linear_1_12253" x1="19.1469" y1="14.4862" x2="-9.35881" y2="-14.7102" gradientUnits="userSpaceOnUse">
<stop stop-color="#FF3A44"/>
<stop offset="1" stop-color="#C31162"/>
</linearGradient>
<linearGradient id="paint3_linear_1_12253" x1="-3.34826" y1="42.1993" x2="9.38081" y2="29.1619" gradientUnits="userSpaceOnUse">
<stop stop-color="#32A071"/>
<stop offset="0.0685" stop-color="#2DA771"/>
<stop offset="0.4762" stop-color="#15CF74"/>
<stop offset="0.8009" stop-color="#06E775"/>
<stop offset="1" stop-color="#00F076"/>
</linearGradient>
</defs>
</svg>
