<svg width="32" height="32" viewBox="0 0 32 32" fill="none" xmlns="http://www.w3.org/2000/svg">
<path fill-rule="evenodd" clip-rule="evenodd" d="M21.9996 32.001H9.99963C4.47777 32.001 0 27.524 0 22.0013V10.0006C0 4.47874 4.47777 0.000976562 9.99963 0.000976562H21.9996C27.5222 0.000976562 32 4.47874 32 10.0006V22.0013C32 27.524 27.5222 32.001 21.9996 32.001ZM29.0002 10.0006C29.0002 6.14051 25.8597 3.00079 21.9996 3.00079H9.99963C6.13954 3.00079 2.99981 6.14051 2.99981 10.0006V22.0013C2.99981 25.8607 6.13954 29.0012 9.99963 29.0012H21.9996C25.8597 29.0012 29.0002 25.8607 29.0002 22.0013V10.0006ZM24.5998 8.46684C24.0112 8.46684 23.5341 7.99056 23.5341 7.40116C23.5341 6.81251 24.0112 6.334 24.5998 6.334C25.1885 6.334 25.6662 6.81251 25.6662 7.40116C25.6662 7.99056 25.1885 8.46684 24.5998 8.46684ZM16 24.0002C11.5818 24.0002 8 20.4177 8 16.0017C8 11.5827 11.5818 8.00023 16 8.00023C20.4175 8.00023 24 11.5827 24 16.0017C24 20.4177 20.4175 24.0002 16 24.0002ZM16 11.0015C13.2435 11.0015 10.9998 13.243 10.9998 16.0017C10.9998 18.756 13.2435 21.0012 16 21.0012C18.7557 21.0012 21.0002 18.756 21.0002 16.0017C21.0002 13.243 18.7557 11.0015 16 11.0015Z" fill="#3F3E56"/>
<path fill-rule="evenodd" clip-rule="evenodd" d="M21.9996 32.001H9.99963C4.47777 32.001 0 27.524 0 22.0013V10.0006C0 4.47874 4.47777 0.000976562 9.99963 0.000976562H21.9996C27.5222 0.000976562 32 4.47874 32 10.0006V22.0013C32 27.524 27.5222 32.001 21.9996 32.001ZM29.0002 10.0006C29.0002 6.14051 25.8597 3.00079 21.9996 3.00079H9.99963C6.13954 3.00079 2.99981 6.14051 2.99981 10.0006V22.0013C2.99981 25.8607 6.13954 29.0012 9.99963 29.0012H21.9996C25.8597 29.0012 29.0002 25.8607 29.0002 22.0013V10.0006ZM24.5998 8.46684C24.0112 8.46684 23.5341 7.99056 23.5341 7.40116C23.5341 6.81251 24.0112 6.334 24.5998 6.334C25.1885 6.334 25.6662 6.81251 25.6662 7.40116C25.6662 7.99056 25.1885 8.46684 24.5998 8.46684ZM16 24.0002C11.5818 24.0002 8 20.4177 8 16.0017C8 11.5827 11.5818 8.00023 16 8.00023C20.4175 8.00023 24 11.5827 24 16.0017C24 20.4177 20.4175 24.0002 16 24.0002ZM16 11.0015C13.2435 11.0015 10.9998 13.243 10.9998 16.0017C10.9998 18.756 13.2435 21.0012 16 21.0012C18.7557 21.0012 21.0002 18.756 21.0002 16.0017C21.0002 13.243 18.7557 11.0015 16 11.0015Z" fill="url(#paint0_linear_1_4856)"/>
<defs>
<linearGradient id="paint0_linear_1_4856" x1="16" y1="-2.99902" x2="3" y2="29.001" gradientUnits="userSpaceOnUse">
<stop stop-color="#9E00FF"/>
<stop offset="0.315673" stop-color="#FD02B7"/>
<stop offset="0.669608" stop-color="#FF004D"/>
<stop offset="1" stop-color="#FFC228"/>
</linearGradient>
</defs>
</svg>
