<svg width="164" height="66" viewBox="0 0 164 66" fill="none" xmlns="http://www.w3.org/2000/svg">
<path d="M24.3868 2.18395L18.8865 35.3153H10.8787L16.379 2.18395H24.3868Z" fill="white"/>
<path d="M24.0268 35.3153L24.7548 30.8018L38.5865 16.776L38.6512 16.6142H27.5212L28.5727 10.4668H49.118L48.3415 15.4171L35.4157 29.0061L35.351 29.1679H46.4164L45.4295 35.3153H24.0268Z" fill="white"/>
<path d="M50.6751 35.3153L51.4031 30.8018L65.2347 16.776L65.2994 16.6142H54.1694L55.2209 10.4668H75.7662L74.9897 15.4171L62.064 29.0061L61.9993 29.1679H73.0646L72.0778 35.3153H50.6751Z" fill="white"/>
<path d="M77.2101 35.3153L81.3515 10.4668H89.2622L85.1208 35.3153H77.2101ZM85.865 7.55484C84.7433 7.55484 83.832 7.18276 83.131 6.4386C82.43 5.69444 82.1549 4.80469 82.3059 3.76933C82.4569 2.72319 82.9854 1.83344 83.8913 1.10006C84.7973 0.366687 85.8056 0 86.9165 0C88.0381 0 88.9387 0.366687 89.6181 1.10006C90.3083 1.83344 90.578 2.72319 90.427 3.76933C90.2976 4.80469 89.7799 5.69444 88.874 6.4386C87.9788 7.18276 86.9758 7.55484 85.865 7.55484Z" fill="white"/>
<path d="M90.156 35.3153L95.6563 2.18395H118.272L117.172 8.68726H102.564L101.464 15.4818H114.632L113.532 22.0013H100.364L98.1638 35.3153H90.156Z" fill="white"/>
<path d="M116.804 35.3153L120.946 10.4668H128.856L124.715 35.3153H116.804ZM125.459 7.55484C124.338 7.55484 123.426 7.18276 122.725 6.4386C122.024 5.69444 121.749 4.80469 121.9 3.76933C122.051 2.72319 122.58 1.83344 123.486 1.10006C124.391 0.366687 125.4 0 126.511 0C127.632 0 128.533 0.366687 129.212 1.10006C129.903 1.83344 130.172 2.72319 130.021 3.76933C129.892 4.80469 129.374 5.69444 128.468 6.4386C127.573 7.18276 126.57 7.55484 125.459 7.55484Z" fill="white"/>
<path d="M147.917 10.4668L146.931 16.2906H131.255L132.242 10.4668H147.917ZM136.496 4.51349H144.407L140.589 27.5016C140.514 27.9869 140.524 28.3806 140.621 28.6825C140.729 28.9737 140.923 29.184 141.204 29.3134C141.495 29.4321 141.851 29.4914 142.272 29.4914C142.563 29.4914 142.886 29.459 143.242 29.3943C143.598 29.3296 143.868 29.2811 144.051 29.2487L144.31 34.9594C143.889 35.078 143.323 35.2128 142.611 35.3638C141.91 35.5256 141.091 35.628 140.152 35.6712C138.254 35.7467 136.685 35.5256 135.445 35.0079C134.215 34.4794 133.347 33.6598 132.84 32.5489C132.344 31.4381 132.247 30.0468 132.549 28.3752L136.496 4.51349Z" fill="white"/>
<path d="M2.34957 56.8572L164 46.7705L0 65.6282L2.34957 56.8572Z" fill="#FF42A8"/>
</svg>
