<svg width="114" height="46" viewBox="0 0 114 46" fill="none" xmlns="http://www.w3.org/2000/svg">
<path d="M16.9518 1.51811L13.1284 24.5484H7.56201L11.3854 1.51811H16.9518Z" fill="#3F2264"/>
<path d="M16.7016 24.5484L17.2076 21.411L26.8223 11.6613L26.8673 11.5489H19.1306L19.8615 7.27569H34.143L33.6032 10.7167L24.6183 20.1628L24.5733 20.2752H32.2651L31.5791 24.5484H16.7016Z" fill="#3F2264"/>
<path d="M35.2254 24.5484L35.7314 21.411L45.3461 11.6613L45.3911 11.5489H37.6543L38.3853 7.27569H52.6668L52.127 10.7167L43.142 20.1628L43.0971 20.2752H50.7888L50.1029 24.5484H35.2254Z" fill="#3F2264"/>
<path d="M53.6704 24.5484L56.5492 7.27569H62.0481L59.1694 24.5484H53.6704ZM59.6866 5.25154C58.907 5.25154 58.2735 4.9929 57.7862 4.47561C57.2989 3.95833 57.1077 3.33984 57.2127 2.62015C57.3176 1.89295 57.685 1.27446 58.3147 0.764677C58.9444 0.254892 59.6454 0 60.4176 0C61.1973 0 61.8232 0.254892 62.2955 0.764677C62.7753 1.27446 62.9628 1.89295 62.8578 2.62015C62.7678 3.33984 62.408 3.95833 61.7783 4.47561C61.156 4.9929 60.4588 5.25154 59.6866 5.25154Z" fill="#3F2264"/>
<path d="M62.6694 24.5484L66.4928 1.51811H82.2137L81.449 6.03871H71.2946L70.5299 10.7617H79.6835L78.9189 15.2936H69.7652L68.2358 24.5484H62.6694Z" fill="#3F2264"/>
<path d="M81.1932 24.5484L84.072 7.27569H89.5709L86.6921 24.5484H81.1932ZM87.2094 5.25154C86.4298 5.25154 85.7963 4.9929 85.309 4.47561C84.8217 3.95833 84.6305 3.33984 84.7355 2.62015C84.8404 1.89295 85.2078 1.27446 85.8375 0.764677C86.4672 0.254892 87.1682 0 87.9404 0C88.72 0 89.346 0.254892 89.8183 0.764677C90.2981 1.27446 90.4855 1.89295 90.3806 2.62015C90.2906 3.33984 89.9308 3.95833 89.301 4.47561C88.6788 4.9929 87.9816 5.25154 87.2094 5.25154Z" fill="#3F2264"/>
<path d="M102.821 7.27569L102.135 11.324H91.238L91.924 7.27569H102.821ZM94.8815 3.13743H100.38L97.7266 19.117C97.6741 19.4543 97.6816 19.7279 97.7491 19.9379C97.824 20.1403 97.959 20.2865 98.1539 20.3764C98.3563 20.4589 98.6037 20.5001 98.8961 20.5001C99.0985 20.5001 99.3234 20.4776 99.5708 20.4326C99.8182 20.3877 100.006 20.3539 100.133 20.3314L100.313 24.301C100.021 24.3835 99.627 24.4772 99.1322 24.5821C98.6449 24.6946 98.0752 24.7658 97.4229 24.7958C96.1035 24.8483 95.0127 24.6946 94.1506 24.3348C93.2959 23.9674 92.6924 23.3976 92.3401 22.6255C91.9952 21.8533 91.9278 20.8862 92.1377 19.7242L94.8815 3.13743Z" fill="#3F2264"/>
<path d="M1.63324 39.5227L114 32.5112L0 45.6196L1.63324 39.5227Z" fill="#FF42A8"/>
</svg>
