<svg width="80" height="64" viewBox="0 0 80 64" fill="none" xmlns="http://www.w3.org/2000/svg">
<path d="M18.6628 62C13.4889 62 9.38031 60.4727 6.33688 57.4182C3.44563 54.3636 2 50.5091 2 45.8545C2 36.6909 3.74997 28.4 7.24991 20.9818C10.902 13.5636 15.6954 7.74544 21.6301 3.52726C22.8475 2.50908 24.6735 2 27.1083 2C29.0865 2 30.5321 2.36364 31.4451 3.09091C26.4235 7.45454 22.5431 12.3273 19.804 17.7091C17.065 23.0909 15.6954 28.0364 15.6954 32.5455C16.9128 31.9636 18.5867 31.6727 20.7171 31.6727C24.8257 31.6727 28.2495 33.0545 30.9886 35.8182C33.7277 38.5818 35.0973 42.0727 35.0973 46.2909C35.0973 50.9455 33.4995 54.7273 30.3039 57.6364C27.2604 60.5454 23.3801 62 18.6628 62Z" stroke="#FFB4DC" stroke-width="3"/>
<path d="M61.5655 62C56.3917 62 52.2831 60.4727 49.2396 57.4182C46.3484 54.3636 44.9028 50.5091 44.9028 45.8545C44.9028 36.6909 46.6527 28.4 50.1527 20.9818C53.8048 13.5636 58.5982 7.74544 64.5328 3.52726C65.7502 2.50908 67.5763 2 70.011 2C71.9892 2 73.4349 2.36364 74.3479 3.09091C69.3262 7.45454 65.4459 12.3273 62.7068 17.7091C59.9677 23.0909 58.5982 28.0364 58.5982 32.5455C59.8155 31.9636 61.4894 31.6727 63.6198 31.6727C67.7284 31.6727 71.1523 33.0545 73.8914 35.8182C76.6305 38.5818 78 42.0727 78 46.2909C78 50.9455 76.4022 54.7273 73.2066 57.6364C70.1632 60.5454 66.2828 62 61.5655 62Z" stroke="#FFB4DC" stroke-width="3"/>
</svg>
