<svg width="106" height="18" viewBox="0 0 106 18" fill="none" xmlns="http://www.w3.org/2000/svg">
<path d="M9 0L11.3805 5.72348L17.5595 6.21885L12.8518 10.2515L14.2901 16.2812L9 13.05L3.70993 16.2812L5.14822 10.2515L0.440492 6.21885L6.61947 5.72348L9 0Z" fill="#FD8C02"/>
<path d="M31 0L33.3805 5.72348L39.5595 6.21885L34.8518 10.2515L36.2901 16.2812L31 13.05L25.7099 16.2812L27.1482 10.2515L22.4405 6.21885L28.6195 5.72348L31 0Z" fill="#FD8C02"/>
<path d="M53 0L55.3805 5.72348L61.5595 6.21885L56.8518 10.2515L58.2901 16.2812L53 13.05L47.7099 16.2812L49.1482 10.2515L44.4405 6.21885L50.6195 5.72348L53 0Z" fill="#FD8C02"/>
<path d="M75 0L77.3805 5.72348L83.5595 6.21885L78.8518 10.2515L80.2901 16.2812L75 13.05L69.7099 16.2812L71.1482 10.2515L66.4405 6.21885L72.6195 5.72348L75 0Z" fill="#FD8C02"/>
<path d="M97 0L99.3805 5.72348L105.56 6.21885L100.852 10.2515L102.29 16.2812L97 13.05L91.7099 16.2812L93.1482 10.2515L88.4405 6.21885L94.6195 5.72348L97 0Z" fill="#FD8C02"/>
</svg>
